# decimated from body_3d.obj (Moraes reconstruction)
v -1.922499 24.747819 -77.657607
v -1.451974 24.989777 -78.014003
v -4.208752 25.066088 -77.526874
v -1.577796 25.435284 -74.266003
v -5.542833 23.480529 -77.816448
v -4.565468 25.343641 -79.604734
v -1.944820 26.278769 -79.468786
v 0.073400 28.251340 -72.598002
v 0.267019 26.684476 -72.111057
v -0.742346 26.362484 -72.777120
v -2.423182 25.293275 -71.174454
v 0.645981 26.372675 -70.218198
v -0.761579 26.838276 -70.808868
v -0.994075 25.845565 -70.341847
v -3.683399 21.933363 -70.681478
v -0.172102 23.606599 -74.070158
v -2.189283 24.059257 -68.672811
v 0.010938 25.798629 -72.079200
v 0.009018 23.848368 -67.369247
v -1.964921 20.414093 -74.670093
v -0.009026 17.115264 -65.412066
v -2.552181 17.842781 -67.716458
v -3.278757 16.188969 -71.669695
v -0.006204 17.184850 -73.107382
v -0.163797 15.616069 -71.601355
v -2.382416 15.446970 -70.233035
v -1.271315 25.850522 -70.216397
v -5.563472 13.413713 -69.342311
v -4.713322 14.696279 -64.238063
v -5.593806 15.733343 -60.522312
v -0.756371 25.591021 -66.349559
v -1.626084 19.552009 -64.322331
v -3.846560 17.291292 -58.049944
v 0.318158 18.474338 -58.864774
v -5.230074 11.660680 -63.609215
v -4.199804 10.225033 -67.126084
v -7.219128 12.438691 -83.134693
v -6.310882 12.028670 -73.258521
v -4.705639 17.727452 -86.954563
v -3.027718 10.704882 -87.235974
v -0.704987 8.310267 -70.008126
v -1.239459 25.619017 -68.868699
v -4.792211 7.031745 -80.037975
v -0.042479 5.797654 -75.897383
v 0.280234 23.320775 -86.143568
v -4.392616 17.038711 -67.187164
v -4.558818 24.053964 -77.637812
v -3.537529 25.053377 -77.226370
v -3.903989 24.821090 -77.951832
v -1.929994 24.440187 -76.845812
v -4.292537 24.148340 -76.879353
v -4.784659 23.401179 -78.495848
v -2.391284 22.799294 -79.143608
v -1.378324 23.148511 -77.974584
v -4.186664 22.104136 -77.676351
v -8.718136 22.116815 -48.859439
v -9.272951 16.084129 -57.619125
v -15.677824 18.382018 -47.393511
v -15.327285 19.358159 -48.517366
v -20.562902 16.353086 -54.051957
v -22.337783 15.343071 -45.258093
v -4.831579 8.344182 -62.092620
v -9.969472 5.393851 -58.894357
v -3.249716 23.641074 -47.888665
v -14.234539 10.849026 -60.630010
v -6.478269 11.946961 -62.215073
v -20.316973 8.257034 -56.790842
v -19.850149 15.438013 -57.161619
v -13.121220 3.738343 -43.994716
v -10.861373 1.545017 -49.282452
v -7.598263 0.527364 -50.831968
v -23.051522 11.008549 -54.447731
v -19.082012 5.294476 -49.786913
v -15.830689 8.933072 -45.839241
v -24.054492 8.178585 -50.370957
v -23.404044 7.952797 -43.004001
v -16.793430 13.906502 -46.084046
v -25.282943 11.272659 -46.816760
v -23.691447 14.017756 -51.558419
v -20.952602 16.484272 -48.585799
v -17.712504 12.519447 -39.992832
v -21.873603 7.516765 -38.736422
v -16.554541 7.822529 -44.879813
v -23.083449 16.755070 -34.137609
v -24.723734 14.152124 -38.019955
v -20.188523 14.882366 -28.113945
v -9.380237 22.975218 -43.434824
v -7.424297 21.925943 -37.856181
v -12.217168 20.499144 -41.753293
v 0.029106 22.987939 -47.103983
v 6.662505 23.596867 -0.790023
v 6.809140 25.656344 -1.585625
v 5.009598 28.552204 -3.099322
v 2.559948 27.452829 -3.652697
v 4.633498 27.253915 -2.201396
v 2.524710 28.567539 -5.036185
v 4.245611 26.519632 -3.782183
v 5.478752 27.862751 -4.567328
v 6.119234 23.314507 -2.056029
v 5.362737 25.227363 -2.696457
v 1.602738 28.944908 -2.328505
v 3.218025 27.482884 0.082461
v 4.607097 28.461720 -0.729030
v 6.491823 25.062661 0.781839
v 3.452055 26.486540 -1.095410
v 4.434732 24.992498 0.393839
v 7.189415 23.390647 0.890664
v 4.757499 27.274590 -1.768484
v 5.953888 22.729082 1.243854
v 6.294805 23.525882 1.992456
v 0.040321 28.385279 -1.671202
v 2.814973 25.428953 2.431093
v 1.141139 27.004459 -1.479343
v 5.306332 23.220528 2.456645
v 4.213874 25.819968 1.048006
v 2.688209 27.644673 -0.231404
v 1.527399 28.024059 1.343869
v 4.170273 25.405794 2.589053
v 3.132654 25.150713 1.304545
v -0.198418 25.913975 -1.420778
v 1.347683 26.309511 0.569039
v 0.875309 26.487403 2.719016
v -1.874189 27.824264 0.897903
v -2.475077 26.056566 0.644051
v 0.298776 25.389749 1.868871
v 1.145743 24.055465 2.550452
v 1.327743 24.661409 3.364471
v 3.906940 24.634432 -7.529766
v 4.742409 24.153866 -6.281019
v 3.368875 24.138677 -8.777712
v 2.333530 25.027364 -7.552838
v 2.701683 23.204983 -9.050851
v 4.981496 23.017927 -6.897789
v 2.161115 23.008136 -7.770911
v 7.327255 23.607876 -1.935065
v -2.021385 28.005079 -0.402319
v 0.946514 26.115310 1.383412
v 6.726939 25.842819 -3.271454
v 5.410435 24.994003 -0.671321
v 3.879925 23.370416 1.659570
v 2.108171 24.581467 2.599153
v -0.165466 25.924434 2.523994
v -2.158126 26.136099 -4.532080
v -4.350570 27.021643 -0.371062
v -1.546677 24.242293 -11.513893
v -0.192069 26.168056 -8.964798
v 3.871112 26.920969 -5.820333
v 2.163218 26.454477 -3.291663
v -1.065616 26.491172 -0.248860
v -26.052022 11.915579 -28.439089
v -19.533826 13.102863 -27.395989
v -25.819916 15.210962 -25.821242
v -25.137337 11.945360 -23.478260
v -23.607535 15.798308 -29.488007
v -23.912663 16.871825 -26.514180
v -23.787468 10.876129 -22.711798
v -18.112538 12.064975 -26.027731
v -20.531943 10.225592 -24.063390
v -12.665130 19.314695 -17.501826
v -16.571345 21.617884 -14.389117
v -16.540925 14.194127 -18.931554
v -7.133482 27.240247 -10.820417
v -8.008905 24.586314 -10.676573
v -15.403946 22.839621 -16.795664
v -9.247805 24.833225 -8.193908
v -10.240661 28.219844 -7.958267
v -3.673532 28.238453 -10.096391
v -1.566333 29.219393 -5.043661
v -0.333286 24.682400 -8.051265
v -2.969378 23.643978 -8.796729
v -0.783130 28.778046 -0.945859
v -6.788473 25.443392 -2.735553
v -7.241807 24.277047 -4.974649
v -6.049897 24.621157 -7.873757
v -2.192284 24.779110 -72.523282
v -1.759838 25.165809 -70.260405
v -19.512194 15.414811 -44.744532
v -0.629962 2.540291 -45.674141
v -16.337648 5.051400 -47.779047
v -21.271750 9.013598 -30.108286
v -23.691951 9.409638 -26.477936
v -10.162818 25.773624 -7.298231
v 0.807275 25.761679 -6.610621
v -6.441004 0.918338 -42.546118
v -19.670471 10.004083 -29.853340
v -8.705973 28.017918 -10.458333
v -6.152719 25.770141 -10.157753
v -14.389890 10.686595 -37.495742
v -14.256389 15.881199 -37.111097
v -10.607637 4.577025 -32.338736
v -5.820450 2.576997 -29.271681
v -0.000577 5.125766 -22.732847
v -11.938907 18.354018 -23.093184
v -4.099832 4.585917 -21.697751
v -11.000974 6.933160 -24.947328
v -0.004273 22.863853 -23.876042
v -0.791464 5.337872 -17.395769
v -9.587089 20.175248 -28.913221
v -1.002080 23.534129 -14.147448
v -4.003032 23.262568 -20.554832
v -12.671873 12.333827 -25.703515
v -14.851775 10.759377 -14.504682
v -13.282243 18.940362 -16.728158
v -8.651343 6.307616 -18.759441
v -11.631232 7.643909 -18.693979
v -4.998270 1.745389 -5.885754
v -2.603528 1.964965 -3.822431
v -11.844256 4.014802 -2.764730
v -1.339525 3.956315 0.644828
v -8.228728 3.179892 4.128133
v -5.860410 5.798159 8.231756
v -3.069331 7.422421 7.398324
v -15.340072 18.681182 8.659865
v -7.082263 23.167066 -8.574957
v -13.040981 20.932542 -6.154113
v -8.996161 21.768212 0.356575
v -0.721159 21.078374 -0.347516
v -2.380839 18.935270 2.226370
v 0.038535 11.724914 3.693836
v -16.114414 16.086240 -5.530217
v -10.293981 6.370036 12.283428
v -0.833955 10.534259 5.221086
v -14.568575 6.704600 3.558806
v -16.695549 13.160277 8.836063
v -2.982182 19.619585 8.251709
v -0.102231 15.454635 10.901832
v -12.971763 9.406124 18.917692
v -9.777400 23.701974 17.112567
v -6.115330 23.421161 18.093498
v -12.652971 22.068206 13.834739
v 0.435400 12.720600 29.140569
v -9.334871 19.958557 36.285052
v -10.218407 14.377984 35.310591
v -2.154561 8.846814 26.514113
v -6.053373 10.548741 37.087139
v -1.843189 21.324211 41.834338
v -1.525241 11.102353 35.723334
v -5.485872 22.365309 35.563137
v -9.700704 15.030550 45.686069
v -0.184833 19.663555 39.053520
v -5.714342 21.618793 44.767423
v -3.005474 10.312632 44.456844
v -7.050642 10.803128 43.578902
v -0.292110 12.136792 47.238049
v -5.102330 18.186623 53.004104
v -8.057244 17.634912 49.972614
v -8.152984 7.292000 54.259627
v -10.231880 10.199369 56.456789
v -0.350171 6.805477 56.819883
v -3.342395 17.685758 51.901464
v -3.986397 5.708440 53.463145
v -0.444782 14.515830 50.814942
v -9.511870 13.795846 58.131144
v -4.669261 10.164695 81.689963
v 1.443099 11.097876 62.089474
v -4.191903 6.145443 81.726774
v -4.163532 13.553040 74.473760
v 3.758669 5.775907 90.956622
v 0.398324 7.226530 82.218624
v -0.857539 11.735043 78.386242
v -3.026662 25.630438 -77.170087
v 9.279280 19.987708 99.201600
v 6.709540 20.786823 99.224738
v 8.346476 21.298325 99.201823
v 8.731881 20.877153 101.693699
v 6.777862 20.113335 101.049704
v 5.599968 22.256640 102.025056
v 6.756172 22.174068 101.515784
v 6.926969 21.064910 102.335064
v -1.143592 27.381957 -72.923937
v -0.016109 25.872236 -77.621858
v -2.824861 22.286669 -76.356660
v -3.692549 22.800738 -67.206693
v -6.049413 22.492177 -73.988208
v -2.006491 25.011769 -83.645853
v -3.960543 8.048421 -74.270883
v -1.499252 24.943876 -76.847038
v -7.149393 13.479438 -76.195843
v -3.300265 7.106608 -83.893502
v -6.787515 16.805971 -76.406513
v -7.239702 15.937463 -76.186428
v -8.212572 13.518086 -75.060442
v -7.937187 14.389901 -76.974004
v -7.588716 15.281709 -72.169712
v -6.780091 15.846131 -74.845305
v -8.223455 14.201295 -74.379467
v -7.140293 15.374303 -75.514741
v -4.732191 22.075996 -85.012701
v -6.108178 23.083739 -78.932183
v -6.797634 14.637970 -74.618582
v -6.835354 16.042100 -73.360930
v -6.014331 15.647290 -71.911974
v 6.186220 18.806128 99.275609
v 7.966371 18.147136 99.565001
v 8.051554 18.495772 96.132780
v 5.127864 20.335888 101.821482
v 5.207554 18.255588 100.371573
v 6.513532 17.226571 99.671657
v 3.947735 18.830262 98.715968
v 3.461404 21.043923 101.427730
v 3.610535 20.384556 102.247264
v 4.436772 21.933983 102.081636
v 5.154583 20.461314 102.528682
v 4.209281 18.362427 100.887421
v 4.182759 20.806244 100.541261
v 2.855118 17.317388 100.782598
v 2.525490 17.699442 97.883786
v 2.064033 20.215957 101.907356
v 3.447544 19.246274 102.137496
v 0.753558 17.462651 99.894393
v 2.146458 19.552160 102.694468
v 2.084786 17.143597 101.203287
v 1.970676 18.644102 99.425339
v 0.193062 17.908057 101.955942
v 8.068602 22.491659 101.309063
v 6.219421 16.439199 94.172709
v 3.904093 16.327702 93.173939
v -0.735234 14.010225 93.960625
v -1.676812 13.556600 98.877275
v 0.062591 13.256927 86.413616
v -3.413387 11.980628 86.668849
v 8.286643 14.607267 97.035251
v 2.854528 13.559216 98.762821
v 4.628937 11.277110 93.821380
v -1.966727 0.730435 87.147261
v -4.577370 6.644037 87.470304
v 3.564631 10.124136 89.268267
v 1.941525 0.182933 88.124856
v -1.587347 4.318281 83.982742
v 1.879363 7.914061 85.986924
v -0.405757 16.539117 3.371096
v 1.087618 15.598591 38.492520
v 0.001567 7.061497 71.869234
v -2.739521 9.776984 93.295034
v -1.866022 1.369092 91.340239
v 2.310245 2.842248 91.772773
v 5.171487 20.851382 99.097292
v 3.096921 20.241519 101.565562
v 1.511924 19.150418 101.811904
v 0.279451 18.756391 101.551137
v 0.137385 18.161502 99.975964
v 0.899592 16.838023 101.320033
v 1.576073 17.743524 101.929535
v 5.428454 18.783163 97.496618
v -0.224723 12.545041 99.602971
v -2.363878 20.848840 24.462050
v -14.323034 15.879523 20.770165
v 3.002925 25.649042 -77.160047
v 3.515801 25.083626 -77.176971
v 2.525501 26.141887 -79.567658
v 5.065372 24.759218 -79.096853
v 1.307860 24.930849 -78.015688
v 5.249803 23.656225 -77.553484
v -0.015137 27.423340 -74.817065
v 1.156746 27.307296 -72.834822
v 0.830910 26.264683 -72.891722
v 1.703484 25.214608 -70.273576
v 0.770944 25.751181 -70.382452
v 1.717156 24.588726 -68.629655
v 3.528129 21.668782 -73.100887
v 1.035699 22.181054 -74.728697
v 2.417630 17.397914 -73.084157
v 2.614694 15.454635 -70.606063
v 1.558473 16.249896 -66.637427
v 1.276603 25.120433 -66.452071
v 4.375533 21.757005 -67.824238
v 5.050209 15.007410 -62.039477
v 6.315164 12.239391 -62.374962
v 1.776555 20.318296 -64.944068
v 0.654376 19.731578 -63.000889
v 0.740623 18.429424 -56.275204
v 5.030785 10.823352 -65.126160
v 6.009017 14.184090 -72.023358
v 5.366073 8.667623 -62.170621
v 2.844918 9.433774 -69.722148
v 5.710228 21.989482 -81.988501
v 2.796431 7.509859 -73.740437
v 5.448100 17.157065 -86.135921
v 2.466401 24.986471 -83.349685
v 5.891909 17.148227 -71.662427
v 4.060299 17.153767 -66.513151
v 4.573286 23.566547 -83.417840
v 7.242487 12.424149 -83.057912
v 4.739669 7.002847 -79.951852
v 1.334052 19.145081 -87.874488
v 0.145426 7.371343 -60.657592
v 4.372390 24.888193 -77.627965
v 2.133951 24.913331 -77.834868
v 1.892504 24.697722 -77.549465
v 3.679575 24.207850 -76.298666
v 2.932944 22.204453 -76.652221
v 4.478743 23.145013 -78.746229
v 4.185668 22.176701 -77.466548
v 1.412628 23.059687 -78.288207
v 3.178447 23.673083 -79.339740
v 21.686385 16.165685 -52.278698
v 10.166820 15.642559 -58.134408
v 14.975038 17.720671 -45.361196
v 22.409094 14.399158 -43.260409
v 4.015901 17.138873 -59.186136
v 13.631495 10.919414 -61.178402
v 19.644579 10.981705 -58.665581
v 12.954270 5.709117 -58.446580
v 12.207447 1.988766 -49.062550
v 8.376677 4.234462 -57.403797
v 7.553328 0.508732 -50.867047
v 0.009483 5.278825 -56.005202
v 6.894291 0.681104 -46.165309
v 20.376440 15.560839 -56.889126
v 22.017836 8.430282 -54.900732
v 15.671362 13.913394 -45.965853
v 23.173010 8.335119 -49.747694
v 13.735687 6.203346 -43.234810
v 23.847044 11.342682 -50.939351
v 15.787261 18.804471 -48.780868
v 18.569489 5.065706 -50.395332
v 23.065628 9.468737 -42.126803
v 19.846991 7.131285 -41.536217
v 16.443293 12.628222 -38.400148
v 21.341486 17.013170 -33.841258
v 25.018243 15.174811 -31.046787
v 9.406187 22.934037 -43.513648
v 3.405323 23.464415 -48.156529
v 12.669098 20.408320 -43.084921
v 11.781493 21.130158 -48.496414
v 11.041303 18.926612 -36.399102
v -5.483803 23.144730 -0.830463
v -3.145173 23.426280 -2.587773
v -7.625641 24.087896 1.689868
v -3.600549 24.392312 -0.854231
v -9.022258 22.890703 2.086908
v -7.895663 22.972995 3.285869
v -4.324148 25.023152 1.361740
v -8.219874 22.798947 4.527024
v -5.864025 22.004501 3.706050
v -5.125463 23.661013 0.844176
v -6.468208 23.447836 4.534636
v -7.498055 22.610851 5.795617
v -0.789817 23.466900 3.040606
v -4.213797 22.941487 5.068721
v -5.937376 22.358103 4.979691
v -4.805725 21.290071 5.146340
v -1.666850 22.570407 2.397471
v -5.321033 22.082747 6.196544
v -2.748660 23.236308 2.002968
v -1.780500 22.624467 3.805165
v -1.354470 21.431532 4.071294
v -1.400602 22.208641 4.722684
v -6.409827 21.476203 -2.818629
v -5.567098 23.119978 -3.201036
v -4.786886 21.058427 -3.835808
v -5.329818 21.726864 -5.061831
v -4.006846 23.862751 -4.184223
v -5.368388 25.565447 -0.782864
v -3.515376 24.068621 2.350576
v -1.718309 24.705568 2.513306
v 1.314266 24.125276 2.364985
v -4.009678 24.668525 -4.133712
v -7.616175 22.121847 2.357581
v -3.514480 22.940726 1.437446
v 0.788719 23.318917 1.321464
v -1.116575 22.709534 -1.738560
v 3.338599 22.484002 1.013006
v -3.779728 25.709659 -2.841681
v 1.016149 25.281533 0.500104
v 1.452856 22.543529 -0.373289
v -1.161257 23.368547 -5.306586
v 0.216676 25.041639 -0.154653
v 6.796821 22.519760 -5.864432
v -2.994237 22.451528 -5.147327
v 0.737180 22.954363 -9.161319
v 4.657119 22.978086 -7.920083
v 3.139042 23.555510 1.734035
v -0.695493 25.955537 -1.080091
v -0.923153 23.524204 0.075084
v 3.207268 24.635734 0.416535
v 1.980939 22.867070 0.806935
v 1.370340 22.431266 2.397796
v 23.242969 16.155526 -29.159980
v 25.320322 11.184408 -27.706353
v 26.246036 13.859023 -27.080048
v 18.759867 12.713110 -29.000781
v 24.295120 16.748959 -25.307508
v 23.882738 9.973051 -24.089722
v 19.371330 14.782125 -27.785103
v 25.104518 14.823386 -23.585206
v 17.923005 11.798708 -26.308139
v 20.020911 16.058031 -18.227018
v 20.816289 9.924603 -24.308047
v 15.777414 14.929981 -17.232203
v 14.533102 22.450590 -14.759102
v 7.222269 27.779090 -10.074143
v 10.955505 19.644608 -17.105020
v 5.863591 24.419799 -9.623601
v -2.721701 24.305282 -1.539405
v -5.085378 22.966622 -5.777045
v -2.309090 23.725633 -7.088482
v -2.018430 24.970514 -5.614021
v 1.868678 23.701842 -3.918784
v 3.323871 19.975367 -69.177212
v 1.853560 25.187151 -72.334175
v 6.315435 22.682431 -78.607768
v 12.848960 19.072403 -52.884605
v 18.409094 15.647019 -46.100893
v 16.360721 6.020495 -47.378770
v 21.179893 9.208816 -28.415354
v 10.848025 20.686954 -11.410560
v 8.285500 26.821030 -7.533595
v 1.134056 26.748926 -9.194887
v 15.767677 8.552260 -39.797914
v 14.761062 7.958188 -46.005091
v 18.482846 10.017218 -30.810842
v 7.046179 24.039960 -8.398716
v 7.028317 23.936556 -3.280924
v 15.357466 4.307828 -48.021502
v 12.466054 22.610167 -17.505136
v 5.578915 27.094054 -11.141593
v 8.111293 24.947777 -7.331679
v 4.759876 25.756430 -11.177113
v 9.937792 2.688174 -41.465590
v 14.600303 15.251872 -37.389272
v 0.000111 2.833712 -37.531003
v 12.504454 11.286375 -26.173760
v 10.636531 6.210145 -26.642563
v 12.518676 16.296451 -25.439299
v 6.179565 2.286170 -30.061916
v 14.051052 12.272828 -18.345736
v 4.089715 4.554621 -21.868867
v -2.731065 23.722047 -34.634137
v 5.168885 23.306430 -39.090380
v 4.073761 23.090578 -21.695212
v 0.039139 22.744435 -17.223428
v 10.605776 19.243070 -24.854221
v 13.736214 17.142637 -17.107148
v 6.892504 23.625432 -9.358383
v 14.120033 7.475616 -13.234822
v 10.724669 7.215592 -19.463698
v 3.814939 5.111946 -16.703299
v 2.933386 1.783424 -4.822530
v 0.010847 4.356641 -4.453166
v 10.082803 2.580641 -4.630263
v 1.565714 3.774851 0.363328
v 0.072854 6.395044 0.553645
v 3.439977 7.405969 6.272009
v 16.168994 14.515742 -6.750937
v 17.329101 13.118940 7.928193
v 15.387629 18.428029 -5.107329
v 12.218328 20.981196 -11.091951
v 6.133861 20.498540 -3.015213
v 9.980264 22.052744 -5.956566
v 13.794699 20.289323 -0.219266
v -0.139722 8.362167 2.920588
v 9.150473 3.099541 2.302241
v 14.904586 6.774886 2.747759
v 1.184103 10.344710 4.141220
v 9.012721 22.070869 2.705787
v 8.610858 5.478709 9.284362
v 10.897238 23.696349 16.633888
v 2.698975 18.542614 3.135269
v 13.327017 7.360712 13.292620
v 13.978044 21.682982 12.134068
v 16.638775 17.043995 8.212076
v 7.556167 10.795690 38.246305
v 13.725438 19.107703 27.845710
v 3.178874 19.786293 21.939334
v 3.803734 8.778390 25.581277
v 9.701675 21.211898 38.390571
v 6.140799 21.653819 43.674435
v 11.423737 18.305703 39.588479
v 12.619923 14.860059 32.995202
v 10.429410 12.140811 36.414804
v 4.186513 21.424568 41.087191
v 4.051634 11.453575 38.257358
v 1.507033 14.304268 40.246103
v 7.894576 21.429113 45.013261
v 12.308941 14.627761 44.608292
v 8.241220 9.716699 44.075897
v 10.271971 18.631367 48.510110
v 6.873740 17.715274 54.847413
v 6.611741 5.839697 53.139315
v 12.984881 12.040598 55.982101
v 2.754179 13.965123 50.267614
v 11.292912 7.773663 53.204995
v 3.643231 10.691586 46.913127
v 10.722278 16.514646 56.567958
v 3.701923 6.180037 57.977180
v 1.535625 9.232203 59.739472
v 3.447302 7.086497 73.447591
v 6.323563 6.011028 72.719579
v 8.293451 7.672516 82.776777
v 4.091064 12.065868 79.524901
v 6.475361 7.420704 96.975943
v 6.130309 13.242448 80.641670
v -2.192418 14.536109 103.866765
v -2.757987 12.900527 104.448827
v -1.692693 13.520394 106.658011
v -0.454918 14.751536 104.550870
v -1.115144 11.972805 104.547591
v 0.063368 13.699188 105.371580
v -0.311083 15.463060 106.494618
v 1.669295 14.272639 105.460367
v 0.321517 14.111942 106.814770
v 4.581578 24.034391 -77.659787
v 1.885433 23.494898 -76.658249
v 1.485567 24.927397 -76.554589
v 1.619715 25.413898 -73.629804
v 2.504256 25.241759 -71.154049
v 6.026451 23.207826 -74.182972
v 2.673451 22.102872 -78.434035
v 0.910939 26.716798 -70.711994
v 4.148146 11.324561 -86.962526
v 7.120479 14.255589 -76.978780
v 3.394628 7.304085 -84.132901
v 0.123975 5.615378 -82.301423
v 8.018460 14.356697 -76.920591
v 7.662590 15.327505 -72.132363
v 6.886570 15.984688 -74.732743
v 7.054917 15.994093 -73.381535
v 8.350028 13.515959 -74.773822
v 7.397958 15.920013 -76.595832
v 6.692380 14.781029 -74.005796
v 6.431067 11.802950 -74.242481
v 6.391337 15.475260 -74.243467
v 6.759551 14.836043 -75.179786
v 8.197809 14.277626 -74.467747
v 7.115259 15.462730 -75.497656
v 7.095420 13.836204 -74.516580
v 6.489247 15.946240 -71.987453
v 6.916546 16.438378 -77.304087
v -2.349501 12.424431 100.884725
v -0.275592 13.704017 101.959682
v 0.584032 14.281904 102.454470
v 1.373824 15.258368 103.620240
v 1.726918 14.041320 101.772301
v 0.073698 11.753050 103.281635
v 0.610312 13.020142 104.202276
v 7.969430 1.189854 84.619906
v 2.841499 15.712824 105.726577
v 3.072754 14.183818 106.056959
v 2.404868 15.275556 103.559954
v 2.792946 12.989541 103.996883
v 2.267085 13.239048 103.585679
v 4.204729 12.451363 103.171675
v 3.535193 15.075952 105.168550
v 4.952092 14.432692 105.469079
v 4.574249 15.103084 103.965713
v 4.266280 14.104914 101.937792
v 5.765932 13.292461 102.361991
v 4.139390 13.121164 104.024687
v 6.201812 12.618184 103.175913
v -1.640722 15.326418 106.638796
v 8.454453 12.053449 99.765553
v 2.994678 12.893638 90.499006
v 4.049949 13.076380 94.764439
v 8.604152 9.552815 93.213511
v 0.499580 9.742903 93.787330
v 8.828456 6.998975 94.972678
v 1.617014 7.999485 95.748223
v 5.401088 9.479852 100.314364
v 5.430174 -0.221682 86.032392
v 3.354169 3.141212 90.685096
v 8.872620 3.937522 85.372535
v 9.623514 2.490446 88.775031
v 2.037797 8.553762 87.730927
v 4.139688 5.637567 84.222092
v 3.285215 9.965357 82.576920
v 7.987582 11.545500 84.530650
v 5.921194 4.926978 83.622667
v 9.231593 6.889054 86.972827
v 0.699842 15.447590 3.542081
v 1.015109 12.765922 25.871521
v 2.462402 19.696018 39.025728
v 2.024661 12.260847 62.050132
v 8.741129 0.968068 88.807880
v 5.195212 1.148543 90.066950
v 1.460544 15.308953 105.997605
v 3.248122 14.080633 101.701473
v 0.903294 15.827324 106.485305
v 5.182669 12.697273 103.448522
v 5.230337 14.301695 103.849293
v 6.411232 14.591805 103.630627
v 6.897401 13.822226 103.801513
v 5.651404 14.577177 104.900375
v 6.511412 13.866623 100.933010
v -0.123696 12.920703 98.230188
v 4.809460 12.805547 97.794490
v 7.874523 9.830938 100.405590
v -1.312192 9.060463 100.216453
v 1.233811 9.520599 101.399661
v 16.521261 11.971217 14.247626
v 7.386172 23.488701 21.486537
v 1.287442 22.925419 -78.003606
v 3.583283 24.421321 -79.457424
v 2.671390 25.264286 -77.939298
v 4.158415 23.661047 -76.629122
v 3.853307 21.882187 -78.646277
v 2.568804 21.721335 -77.553582
v 2.359810 23.759148 -76.386999
v -2.053188 24.570257 -79.197030
v -2.761104 25.127706 -77.303070
v -4.217433 22.988858 -79.212448
v -3.082589 21.591714 -77.944865
v -4.514579 23.985295 -77.033147
v -1.863576 22.435921 -76.872534
v -3.475615 14.555451 -65.067177
v -6.596473 12.646644 -64.188112
v -4.664829 14.902927 -66.853113
v -6.064665 13.852257 -64.405813
v -5.041759 13.465691 -65.456613
v -6.688846 15.279764 -64.725162
v -5.423492 14.888681 -64.993865
v -6.659906 16.695399 -66.314446
v -5.294358 16.590140 -68.296393
v -4.680828 16.685813 -68.744448
v -6.777369 17.877204 -68.767575
v -9.042281 17.268741 -67.606693
v -7.264940 18.172943 -67.975404
v -5.862086 17.340161 -67.238038
v -9.192151 15.907730 -65.811782
v 7.390650 9.741106 -77.756243
v 8.337151 9.832095 -73.468605
v 8.865821 11.804115 -76.047336
v 9.374458 14.684300 -76.450003
v 1.056234 5.574998 -83.723780
v 2.388919 5.374729 -82.879922
v 4.628272 6.280953 -76.437387
v 5.208772 6.223922 -80.143193
v 3.140192 4.738987 -78.957416
v 6.520569 8.044731 -73.623881
v 4.076285 3.806579 -74.918437
v 1.789301 3.757674 -73.388076
v 2.425132 3.886571 -76.877857
v 1.689403 4.128464 -81.608282
v 4.702530 9.176705 -86.202130
v 4.502615 6.190954 -83.062738
v 6.382068 8.439652 -81.837623
v 6.976122 12.093879 -83.826430
v 7.017611 14.728230 -84.618553
v 4.429417 12.669464 -87.384120
v 2.520204 7.888542 -85.577784
v 0.941338 8.286798 -87.039479
v 1.851160 13.008889 -88.678345
v -0.267660 15.052801 -88.878634
v 5.668317 8.091944 -77.449539
v 6.367921 5.591639 -64.616600
v 6.732148 5.787940 -68.946297
v 6.298493 7.554195 -66.752919
v 6.231558 5.799953 -62.200688
v 7.434699 7.541443 -62.216338
v 6.775143 6.361964 -60.515114
v 9.756375 13.944143 -71.148529
v 8.422416 11.488911 -71.822125
v 8.203249 11.525637 -67.237578
v 7.166781 9.257319 -71.229308
v 7.813386 10.610012 -64.845906
v 7.004230 10.169597 -68.261250
v 7.966653 8.226958 -62.843438
v 9.064803 13.982029 -64.656296
v 4.459498 4.512757 -72.164766
v 5.980124 4.691902 -67.914896
v 5.599428 5.714599 -71.909372
v 4.254662 5.630125 -70.376209
v 3.521266 3.711630 -66.993161
v 3.120800 4.644377 -65.720092
v 3.813501 5.745109 -67.825473
v 4.601905 6.068369 -65.640413
v 0.161965 3.260659 -73.887981
v 1.144076 4.921260 -67.131461
v 1.510962 5.071145 -63.778351
v 6.202857 6.986059 -63.671184
v 5.812086 6.164146 -61.030184
v 3.243450 4.511685 -62.889082
v 3.788149 3.849220 -59.317448
v 3.977231 5.548557 -62.695754
v 5.033521 4.912129 -58.841285
v 3.577458 4.490878 -57.341063
v 3.020218 3.714198 -57.160971
v 2.435847 7.178030 -58.081478
v 0.966576 5.190100 -58.199410
v 0.104317 4.651690 -57.178870
v 1.151356 5.680283 -57.298694
v 5.746706 11.525603 -65.823052
v 6.310339 11.357848 -63.691809
v 6.698984 11.645226 -65.084600
v 4.570778 12.942975 -65.446503
v 6.701670 14.513211 -64.135550
v 5.052986 13.309405 -66.110899
v 5.465029 9.943453 -62.182925
v 5.608235 6.284191 -59.357588
v 4.386347 13.044081 -63.875600
v 3.334887 11.530308 -62.475118
v 1.827878 11.699326 -61.918648
v 2.083674 16.116465 -62.884870
v 7.293977 18.278361 -84.524050
v 8.207702 13.057513 -80.454274
v 8.252291 17.419401 -81.636344
v 8.272337 19.593982 -80.932278
v 7.303865 20.811494 -80.476507
v 8.613499 17.516372 -79.088190
v 9.535239 15.356644 -73.556209
v 8.046825 19.297924 -75.922415
v 3.444149 16.108629 -88.171139
v 5.467084 19.534454 -86.582548
v 3.073672 19.796746 -87.923446
v 7.157811 20.018398 -83.673855
v 6.018900 22.538259 -84.459558
v -0.173015 20.086405 -88.266404
v 5.848224 20.700113 -80.363106
v 6.519794 19.954345 -75.346695
v 4.673675 23.341588 -81.818344
v 3.297694 22.623976 -87.078892
v 4.645263 23.794002 -85.945614
v 3.071818 24.905047 -85.772308
v 6.446628 23.509537 -82.941587
v 5.621756 24.454616 -83.247104
v 4.141440 24.738120 -82.699781
v 1.313195 25.359257 -85.230071
v 2.423697 25.897620 -83.714833
v 2.563203 24.493667 -82.673872
v -0.822681 25.680233 -83.497664
v 0.143548 24.307841 -82.966033
v 4.513186 23.734561 -79.321024
v 2.958402 22.814547 -77.046592
v 4.807151 22.411149 -77.053161
v 3.577823 24.291959 -79.400903
v 1.191705 22.646610 -78.546033
v 1.521543 24.270447 -80.382123
v 1.909234 24.250351 -73.494316
v 1.005757 22.354299 -76.330453
v 0.727577 25.258738 -74.444399
v 0.326623 25.711883 -73.806255
v 9.442571 14.627328 -69.506381
v 8.732184 17.411021 -70.457153
v 7.550894 18.143142 -69.260355
v 9.743824 15.686761 -65.831917
v 8.664337 15.621863 -64.682333
v 8.284907 17.471772 -67.150431
v 6.096550 17.657558 -68.628923
v 5.841201 18.778053 -69.093522
v 4.814607 15.395073 -67.033183
v 6.399798 16.654065 -65.730045
v 6.323170 18.074453 -67.096487
v 4.665493 16.431279 -68.466405
v 4.033590 15.002831 -66.626957
v 3.311015 17.049662 -68.075325
v 6.198729 20.145566 -71.473067
v 5.108362 22.840528 -70.462809
v 4.458781 21.221837 -67.535518
v 3.749349 22.410331 -66.524886
v -1.415349 20.505304 -66.214674
v 1.481127 19.651033 -66.745127
v 1.368933 17.333058 -65.016650
v 4.931775 23.405346 -68.305551
v 4.194014 24.055186 -71.982307
v 3.179758 25.415722 -69.378543
v 4.287113 24.257541 -65.826378
v 2.508148 25.508234 -72.662508
v 1.249759 25.350668 -69.076498
v 3.244823 25.767780 -71.536189
v 1.650943 25.237095 -70.457349
v -0.377001 25.817521 -70.368860
v 1.192957 26.344165 -66.834220
v 3.634671 23.676782 -64.768166
v 2.495916 24.950290 -64.041650
v -1.838098 4.228453 -81.675090
v -0.663508 7.155353 -85.573744
v 0.027927 3.277032 -79.382095
v -2.132146 3.595019 -76.903176
v -3.368972 4.716978 -78.992629
v -0.193542 3.552491 -76.204138
v -1.633152 3.569543 -73.339344
v -4.257364 3.544742 -74.961748
v -1.996383 5.348099 -83.348181
v -5.330545 6.219459 -80.489037
v -3.562199 3.412618 -73.648000
v -5.105206 6.576294 -76.444564
v -1.095934 8.242227 -86.983104
v -1.728031 12.850776 -88.819011
v -2.557790 8.007688 -85.687127
v -2.672871 10.101686 -87.302011
v -4.848267 9.099730 -86.348006
v -4.591888 6.104565 -83.016970
v -5.930930 8.192871 -83.293293
v -5.205464 12.648095 -87.417443
v -7.081087 12.135788 -84.537894
v -6.991800 9.730109 -80.945380
v -7.193964 9.155811 -77.254351
v -7.982473 12.730489 -78.485757
v -8.519391 11.606858 -75.611941
v -9.323851 16.145246 -77.611548
v -3.346658 3.359439 -67.696729
v -5.860596 4.191497 -67.962367
v -5.225393 5.399107 -72.690314
v -4.223990 5.094541 -69.200547
v -4.106374 5.691599 -66.509454
v -5.307039 5.341020 -63.216832
v -2.952732 4.261540 -65.533964
v -0.578169 5.071952 -65.991403
v -1.197161 5.264037 -57.455977
v -3.012549 3.960211 -57.028234
v -3.175233 4.104650 -61.965479
v -3.851618 5.384202 -62.340477
v -6.240251 5.244450 -64.223416
v -5.860549 6.573310 -60.556078
v -3.915096 3.873759 -58.164183
v -2.890783 5.192290 -56.924562
v -5.230832 6.078232 -59.859031
v -6.660562 6.723633 -59.844984
v -4.969635 5.036030 -58.305794
v -5.289077 6.695388 -58.758209
v -5.973532 7.261815 -64.890020
v -3.612111 14.161512 -66.517489
v -4.817890 12.473630 -64.071557
v -2.025091 7.493044 -57.975940
v -2.417518 15.310761 -62.529289
v -2.863737 12.656034 -62.096977
v -5.679077 10.850181 -63.956130
v -6.827134 9.822924 -61.118943
v -2.368385 10.598992 -60.960649
v -4.182486 13.058696 -62.875959
v -5.353087 4.812312 -71.752826
v -6.662843 5.296408 -68.338388
v -6.932689 7.972361 -72.953848
v -6.651381 6.979989 -71.212396
v -8.028359 8.910744 -72.598446
v -8.004856 10.746796 -70.961624
v -6.680124 8.365363 -65.396597
v -7.065354 9.695451 -67.864107
v -8.175335 12.879441 -73.595197
v -9.042625 12.052538 -69.883510
v -8.622122 11.041319 -67.521134
v -8.979746 14.655655 -72.519134
v -10.325283 15.478207 -66.789101
v -9.449381 14.453643 -65.808128
v -7.965446 8.591008 -61.743456
v -6.323570 11.394721 -61.800082
v -7.769787 10.151499 -65.122024
v -7.039839 7.669248 -60.502237
v -6.965103 10.555070 -62.504245
v -7.749630 11.360998 -64.065273
v -8.265131 13.258326 -64.530456
v -3.526600 16.283466 -88.043927
v -2.576853 19.308343 -88.032557
v -6.563451 14.647916 -85.700903
v -4.964911 18.368957 -86.631918
v -4.015425 23.752104 -85.902684
v -4.280443 21.721121 -86.284678
v -4.810352 24.483155 -82.350203
v -5.780373 22.149497 -80.726092
v -5.094855 23.182722 -80.851717
v -1.919627 25.049643 -85.313482
v 0.001083 24.724044 -85.256163
v -3.801245 25.178745 -83.734188
v -3.014746 24.021263 -82.692164
v -7.179792 22.668203 -81.697713
v -0.913907 22.080250 -76.896682
v -0.643921 23.042112 -79.005789
v -2.320408 24.349352 -79.954754
v -0.183944 23.756282 -75.855807
v 0.038231 22.831541 -77.784691
v -0.234581 25.824169 -74.434560
v -1.516797 24.181979 -73.879059
v -3.151867 24.049988 -73.192539
v -5.409951 22.198371 -77.878699
v -4.738437 23.672049 -79.037387
v -3.159918 22.455067 -76.716998
v -5.080235 22.128284 -76.144229
v -7.733811 17.531457 -84.127039
v -7.829615 15.126114 -84.016642
v -9.396099 16.840434 -81.638125
v -9.096373 18.651633 -79.553228
v -9.385328 18.691976 -75.766352
v -6.702686 20.362718 -75.711931
v -6.121646 20.410578 -80.017265
v -8.215056 20.193244 -79.728635
v -7.768848 21.358058 -81.755775
v -0.954961 17.318445 -64.697547
v -1.239036 19.511768 -66.294036
v -2.431491 16.918399 -66.710423
v -3.198396 17.680967 -68.002835
v -5.834076 18.430577 -68.912170
v -3.877575 22.344986 -65.975993
v -5.044429 19.998737 -68.180775
v -4.699811 21.412624 -67.633907
v 0.633802 16.693122 -62.290915
v -1.133540 16.689040 -62.379388
v -1.335941 25.400094 -73.385748
v -0.523098 26.839701 -72.069635
v -1.550575 25.014428 -70.114711
v -0.020946 26.370911 -68.876187
v -1.835387 26.348182 -67.770712
v -0.842766 26.226851 -65.541360
v -4.864871 23.145435 -70.500320
v -2.975116 25.588278 -71.020949
v -3.346626 24.994832 -68.780626
v -5.094916 24.261978 -66.268906
v 0.049035 23.214104 -64.329088
v 0.518340 24.111714 -63.600137
v 0.028252 25.329630 -63.688686
v -1.281566 25.003387 -64.705103
v -1.768761 23.104884 -64.533441
v -3.491393 24.694338 -63.743376
v -3.949387 23.898180 -63.893131
v -8.663354 18.825707 -72.924161
v -8.415536 17.860538 -69.388143
v -6.205305 20.422563 -71.376585
v -9.199694 16.711826 -70.235757
f 2 261 1
f 3 6 289
f 6 3 7
f 5 3 289
f 4 270 354
f 354 270 8
f 270 4 10
f 17 176 27
f 176 18 14
f 17 27 19
f 17 19 22
f 20 24 16
f 22 19 21
f 26 22 21
f 26 21 364
f 20 25 24
f 26 364 25
f 29 46 28
f 34 370 32
f 34 32 33
f 29 30 33
f 29 35 30
f 29 28 35
f 28 36 35
f 35 62 66
f 35 36 62
f 43 37 279
f 279 37 40
f 36 28 38
f 3 2 7
f 271 7 2
f 2 277 271
f 292 28 46
f 279 40 614
f 38 41 36
f 289 6 288
f 288 6 275
f 37 288 39
f 276 43 44
f 62 41 386
f 31 273 32
f 29 33 46
f 385 40 39
f 385 39 45
f 36 41 62
f 45 39 288
f 50 48 1
f 52 49 47
f 1 54 50
f 49 52 53
f 49 53 1
f 54 1 53
f 51 55 52
f 52 55 53
f 272 54 53
f 48 51 47
f 58 80 77
f 80 177 77
f 57 60 56
f 60 59 56
f 60 80 59
f 58 77 188
f 57 56 64
f 58 188 189
f 371 64 90
f 57 65 68
f 68 79 60
f 79 80 60
f 79 61 80
f 79 85 61
f 57 64 33
f 65 66 62
f 65 62 63
f 35 57 30
f 66 57 35
f 66 65 57
f 33 371 34
f 33 64 371
f 62 386 63
f 68 65 67
f 67 65 63
f 63 70 67
f 184 69 70
f 71 70 63
f 386 407 71
f 386 71 63
f 68 67 72
f 79 68 72
f 69 74 179
f 72 67 75
f 75 67 73
f 76 75 73
f 179 74 83
f 74 77 81
f 74 81 83
f 177 81 77
f 74 188 77
f 78 79 72
f 78 72 75
f 80 58 59
f 78 85 79
f 85 78 75
f 82 76 73
f 84 61 85
f 83 81 151
f 150 75 76
f 177 86 81
f 85 75 150
f 83 151 185
f 87 89 189
f 87 189 88
f 64 87 529
f 87 88 529
f 87 64 56
f 87 56 59
f 89 87 59
f 90 64 529
f 99 138 135
f 138 98 93
f 138 93 92
f 98 96 93
f 96 94 95
f 91 99 135
f 95 97 100
f 104 107 108
f 108 148 94
f 94 101 103
f 106 110 102
f 101 113 102
f 105 139 106
f 110 109 107
f 109 106 139
f 105 108 139
f 105 148 108
f 113 105 102
f 102 105 106
f 110 107 104
f 107 139 108
f 121 119 112
f 140 115 114
f 111 171 117
f 111 117 116
f 115 116 117
f 115 117 118
f 171 149 117
f 120 113 121
f 149 120 121
f 140 112 119
f 127 126 141
f 122 127 141
f 142 144 124
f 136 123 137
f 137 123 122
f 122 123 142
f 144 142 123
f 149 125 124
f 127 142 126
f 142 124 125
f 126 125 137
f 142 125 126
f 131 129 128
f 130 133 132
f 134 132 133
f 129 134 133
f 133 128 129
f 133 130 128
f 131 134 129
f 93 96 95
f 91 92 95
f 92 135 138
f 92 93 95
f 92 91 135
f 108 103 104
f 104 103 102
f 104 102 110
f 94 103 108
f 101 102 103
f 112 114 118
f 118 114 115
f 118 117 112
f 113 111 116
f 122 141 137
f 142 127 122
f 149 136 137
f 147 98 97
f 97 98 138
f 97 138 100
f 94 97 95
f 91 95 99
f 99 100 138
f 95 100 99
f 109 139 107
f 110 106 109
f 121 116 115
f 113 116 121
f 121 115 119
f 149 121 117
f 114 112 140
f 117 121 112
f 140 119 115
f 126 137 141
f 149 137 125
f 149 124 120
f 143 183 120
f 148 147 97
f 94 148 97
f 113 120 105
f 120 148 105
f 151 81 86
f 150 76 82
f 154 84 85
f 152 85 150
f 154 85 152
f 150 82 181
f 180 181 82
f 155 154 152
f 185 151 158
f 152 150 153
f 153 150 181
f 153 181 156
f 158 151 157
f 86 157 151
f 160 152 153
f 86 159 157
f 160 153 156
f 164 154 155
f 164 155 152
f 161 158 157
f 161 157 159
f 164 152 160
f 160 156 182
f 164 162 154
f 154 162 86
f 165 161 159
f 164 186 162
f 163 165 159
f 166 160 182
f 186 164 166
f 166 164 160
f 168 111 101
f 113 101 111
f 136 149 171
f 131 169 134
f 146 128 130
f 131 128 146
f 169 131 146
f 146 130 145
f 145 130 132
f 134 169 170
f 134 170 132
f 132 170 145
f 143 174 170
f 145 187 167
f 143 173 174
f 144 136 171
f 162 187 163
f 33 32 46
f 46 32 273
f 176 17 15
f 22 15 17
f 22 26 23
f 22 23 15
f 20 175 15
f 175 176 15
f 60 57 68
f 84 177 61
f 84 86 177
f 25 23 26
f 15 23 20
f 57 33 30
f 80 61 177
f 168 167 186
f 168 186 166
f 171 168 166
f 163 159 162
f 144 166 182
f 407 178 71
f 82 73 180
f 156 181 158
f 144 171 166
f 96 168 101
f 96 101 94
f 148 183 147
f 183 148 120
f 144 182 172
f 96 98 167
f 167 98 146
f 98 147 146
f 168 96 167
f 173 172 182
f 174 173 165
f 145 174 187
f 170 174 145
f 171 111 168
f 123 136 144
f 124 144 172
f 172 173 124
f 120 124 173
f 173 143 120
f 170 183 143
f 71 184 70
f 178 184 71
f 179 83 73
f 73 83 180
f 180 83 185
f 181 180 185
f 158 181 185
f 156 158 161
f 182 156 161
f 182 161 165
f 167 162 186
f 86 162 159
f 84 154 86
f 146 145 167
f 169 146 183
f 183 170 169
f 182 165 173
f 165 163 174
f 163 187 174
f 167 187 162
f 147 183 146
f 69 190 188
f 69 188 74
f 184 190 69
f 178 522 184
f 184 191 190
f 522 191 184
f 188 201 193
f 188 193 189
f 522 192 191
f 190 201 188
f 190 195 201
f 193 198 189
f 192 194 191
f 190 204 195
f 191 204 190
f 191 194 204
f 201 203 193
f 192 197 194
f 58 89 59
f 189 89 58
f 529 200 196
f 198 88 189
f 88 198 529
f 200 529 198
f 200 198 193
f 199 532 196
f 196 200 199
f 193 203 200
f 201 202 203
f 195 202 201
f 205 202 195
f 194 197 204
f 197 540 206
f 206 207 210
f 207 209 210
f 540 209 207
f 540 543 209
f 543 552 209
f 209 211 210
f 220 215 203
f 220 213 215
f 224 213 220
f 205 208 223
f 205 223 202
f 208 210 223
f 216 218 214
f 214 218 217
f 215 230 216
f 197 206 204
f 213 230 215
f 67 70 73
f 179 73 70
f 179 70 69
f 205 195 204
f 204 206 208
f 204 208 205
f 206 210 208
f 211 221 210
f 331 218 225
f 226 331 225
f 552 211 209
f 552 212 211
f 228 216 230
f 210 221 223
f 216 229 225
f 229 216 228
f 224 223 227
f 227 221 235
f 238 228 232
f 232 347 233
f 240 346 236
f 227 235 233
f 234 237 235
f 237 243 235
f 235 239 233
f 233 239 232
f 241 238 232
f 237 242 243
f 241 232 239
f 252 240 236
f 235 243 239
f 241 245 250
f 239 246 241
f 252 236 250
f 245 241 246
f 246 239 253
f 243 251 247
f 244 249 242
f 242 251 243
f 248 239 243
f 248 243 247
f 242 249 251
f 239 248 253
f 257 246 253
f 246 257 245
f 249 333 251
f 248 254 253
f 333 255 260
f 247 256 248
f 253 254 257
f 251 333 256
f 256 247 251
f 260 250 245
f 260 245 257
f 254 248 256
f 326 334 321
f 254 326 321
f 260 257 321
f 320 260 321
f 1 48 277
f 3 261 2
f 2 1 277
f 5 47 3
f 277 4 271
f 4 11 10
f 270 10 9
f 270 9 8
f 47 51 52
f 50 54 272
f 354 271 4
f 6 7 275
f 42 273 31
f 274 280 292
f 274 292 46
f 11 273 176
f 273 27 176
f 273 42 27
f 41 276 44
f 38 276 41
f 28 292 38
f 11 277 47
f 277 11 4
f 273 274 46
f 11 274 273
f 47 5 11
f 280 274 289
f 272 55 51
f 272 53 55
f 51 50 272
f 48 50 51
f 48 47 277
f 12 27 42
f 14 13 176
f 11 176 13
f 11 5 274
f 176 175 18
f 175 16 18
f 11 13 10
f 20 23 25
f 20 16 175
f 274 5 289
f 43 279 614
f 280 289 37
f 285 281 287
f 37 289 288
f 45 288 275
f 292 278 38
f 292 284 282
f 280 281 285
f 284 286 282
f 291 286 284
f 291 285 290
f 285 287 290
f 286 291 290
f 291 280 285
f 292 291 284
f 292 282 278
f 283 278 282
f 291 292 280
f 290 287 286
f 281 283 287
f 287 283 286
f 282 286 283
f 38 278 37
f 37 43 38
f 43 276 38
f 283 281 280
f 278 283 280
f 37 278 280
f 40 37 39
f 614 44 43
f 298 294 293
f 328 335 325
f 329 328 325
f 310 312 311
f 341 310 319
f 310 343 342
f 297 299 304
f 312 310 342
f 344 299 337
f 326 254 256
f 318 334 319
f 324 323 345
f 319 310 318
f 328 329 330
f 326 325 335
f 326 329 325
f 330 329 259
f 329 326 256
f 320 321 318
f 320 327 330
f 317 327 320
f 330 259 260
f 330 260 320
f 335 319 334
f 318 321 334
f 322 323 324
f 309 306 313
f 309 313 338
f 309 312 306
f 334 326 335
f 320 318 307
f 320 307 317
f 336 345 319
f 345 336 324
f 335 328 336
f 258 327 324
f 319 335 336
f 317 316 327
f 293 266 263
f 294 266 293
f 266 294 265
f 322 294 298
f 322 295 262
f 322 262 294
f 265 294 262
f 267 337 296
f 269 296 297
f 293 297 298
f 327 316 322
f 322 324 327
f 264 263 315
f 299 307 305
f 303 299 305
f 304 299 303
f 297 296 299
f 296 337 299
f 269 297 293
f 293 268 269
f 268 293 337
f 337 267 268
f 293 344 337
f 263 344 293
f 295 264 262
f 301 304 303
f 306 304 301
f 306 307 313
f 311 308 310
f 301 300 307
f 301 307 306
f 260 255 250
f 250 255 252
f 241 250 236
f 238 241 236
f 244 231 332
f 238 236 346
f 229 238 346
f 347 213 224
f 216 225 218
f 217 218 331
f 222 552 331
f 219 331 552
f 344 263 295
f 264 295 263
f 300 305 307
f 302 305 300
f 309 311 312
f 308 313 310
f 322 316 295
f 316 344 295
f 307 310 313
f 323 298 297
f 269 268 267
f 296 269 267
f 262 264 315
f 265 262 315
f 343 341 339
f 266 265 315
f 314 342 343
f 339 341 340
f 314 343 339
f 315 263 266
f 343 310 341
f 340 341 314
f 316 317 344
f 299 344 317
f 307 299 317
f 318 310 307
f 298 323 322
f 306 312 345
f 345 323 306
f 304 306 323
f 297 304 323
f 314 341 319
f 319 345 314
f 312 342 345
f 342 314 345
f 258 324 336
f 328 258 336
f 328 327 258
f 328 330 327
f 333 249 255
f 252 255 244
f 249 244 255
f 242 231 244
f 242 237 231
f 237 234 231
f 222 212 552
f 222 331 226
f 231 240 332
f 240 252 332
f 252 244 332
f 303 305 302
f 301 303 302
f 302 300 301
f 313 308 338
f 311 309 338
f 311 338 308
f 314 339 340
f 224 227 347
f 221 227 223
f 234 211 212
f 212 222 231
f 212 231 234
f 222 226 231
f 226 225 346
f 229 228 238
f 228 230 232
f 230 347 232
f 347 227 233
f 231 226 240
f 226 346 240
f 346 225 229
f 234 235 211
f 235 221 211
f 230 213 347
f 3 49 261
f 49 3 47
f 1 261 49
f 352 389 348
f 353 351 387
f 353 502 351
f 352 350 271
f 271 350 7
f 606 354 355
f 354 8 355
f 355 356 606
f 355 9 356
f 13 358 610
f 13 14 358
f 358 14 18
f 364 21 19
f 27 359 19
f 359 27 357
f 18 16 361
f 359 364 19
f 500 364 359
f 361 16 24
f 361 24 362
f 363 364 500
f 363 500 360
f 364 363 25
f 362 24 25
f 365 357 12
f 367 373 381
f 400 370 34
f 400 34 371
f 369 32 370
f 367 368 372
f 373 367 372
f 368 374 372
f 373 372 375
f 372 374 375
f 384 613 383
f 613 611 383
f 608 628 629
f 608 629 502
f 502 629 376
f 381 400 367
f 381 373 380
f 613 614 40
f 613 40 611
f 622 373 375
f 622 377 384
f 385 378 611
f 366 381 380
f 612 383 629
f 383 378 382
f 41 375 386
f 385 611 40
f 377 44 384
f 375 374 386
f 382 378 385
f 365 42 31
f 369 31 32
f 31 369 365
f 365 369 366
f 45 382 385
f 392 603 387
f 390 604 349
f 388 389 394
f 387 388 395
f 394 395 388
f 393 390 603
f 392 393 603
f 395 392 387
f 604 390 391
f 392 395 609
f 609 394 391
f 353 603 349
f 349 603 390
f 396 504 399
f 415 411 504
f 503 425 415
f 419 411 511
f 415 398 411
f 425 424 415
f 398 521 411
f 371 90 423
f 371 423 503
f 401 374 368
f 401 403 374
f 371 397 400
f 368 367 397
f 368 397 401
f 371 503 397
f 423 425 503
f 386 374 405
f 402 403 401
f 403 405 374
f 405 403 404
f 408 404 520
f 406 405 404
f 386 405 406
f 386 406 407
f 409 402 401
f 409 401 397
f 409 410 402
f 410 403 402
f 414 410 409
f 515 511 413
f 414 412 410
f 414 417 412
f 417 416 412
f 418 416 417
f 399 417 414
f 413 511 411
f 412 416 410
f 415 424 398
f 396 414 409
f 414 396 399
f 413 411 521
f 511 510 419
f 399 504 420
f 399 481 417
f 480 418 417
f 504 411 419
f 510 482 419
f 481 480 417
f 421 481 399
f 504 419 420
f 399 420 421
f 506 505 418
f 510 512 482
f 422 426 424
f 422 423 530
f 422 530 426
f 422 425 423
f 424 425 422
f 90 530 423
f 431 429 454
f 428 495 430
f 464 454 430
f 459 430 432
f 432 431 459
f 430 427 428
f 431 432 429
f 434 437 433
f 433 455 474
f 475 460 462
f 435 455 438
f 438 434 435
f 460 435 436
f 462 460 436
f 438 437 434
f 439 461 465
f 468 456 465
f 441 440 456
f 461 443 466
f 444 441 442
f 466 443 475
f 461 439 443
f 442 445 443
f 442 443 439
f 448 457 446
f 448 446 447
f 450 496 452
f 470 451 452
f 449 451 453
f 451 449 452
f 450 449 453
f 449 450 452
f 453 451 470
f 453 496 450
f 429 432 430
f 429 430 454
f 458 454 464
f 458 431 454
f 437 455 433
f 455 437 438
f 495 436 433
f 436 434 433
f 440 439 456
f 439 440 444
f 475 445 456
f 475 456 468
f 445 441 456
f 465 456 439
f 441 444 440
f 461 457 476
f 461 446 457
f 473 457 448
f 427 431 458
f 430 459 427
f 459 431 427
f 434 436 435
f 462 436 495
f 475 455 460
f 455 435 460
f 475 443 445
f 444 442 439
f 442 441 445
f 447 446 461
f 477 478 461
f 463 473 478
f 447 461 478
f 448 447 478
f 448 478 473
f 462 466 475
f 462 428 467
f 467 499 462
f 476 514 508
f 428 427 458
f 495 433 474
f 474 455 475
f 428 462 495
f 463 478 477
f 457 473 476
f 421 420 479
f 419 482 485
f 480 484 418
f 420 419 485
f 506 418 484
f 506 482 512
f 483 481 421
f 481 484 480
f 479 483 421
f 489 485 482
f 489 482 506
f 483 486 481
f 486 484 481
f 487 485 489
f 488 484 486
f 479 491 483
f 489 484 490
f 488 490 484
f 485 487 493
f 490 487 489
f 491 486 483
f 490 493 487
f 491 488 486
f 508 490 488
f 513 493 490
f 479 516 491
f 491 508 488
f 491 516 492
f 508 507 490
f 513 494 493
f 492 508 491
f 517 493 519
f 507 508 518
f 493 494 519
f 492 516 517
f 495 464 430
f 475 468 474
f 476 465 461
f 453 470 467
f 497 452 496
f 453 497 496
f 498 497 453
f 467 498 453
f 452 497 470
f 467 472 499
f 499 472 469
f 477 461 466
f 466 463 477
f 499 466 462
f 508 465 476
f 508 474 465
f 474 468 465
f 498 509 497
f 366 369 381
f 359 357 360
f 362 363 360
f 397 367 400
f 503 409 397
f 503 396 409
f 415 396 503
f 400 381 370
f 370 381 369
f 360 500 359
f 25 363 362
f 357 501 360
f 415 504 396
f 509 492 517
f 474 492 509
f 508 492 474
f 407 406 408
f 407 408 178
f 416 505 515
f 416 418 505
f 484 489 506
f 495 474 464
f 514 518 508
f 464 509 498
f 464 498 458
f 474 509 464
f 469 513 518
f 469 518 514
f 494 513 469
f 471 519 494
f 509 519 471
f 494 469 472
f 472 471 494
f 463 514 473
f 514 463 469
f 466 469 463
f 469 466 499
f 428 458 467
f 406 404 408
f 515 505 511
f 505 510 511
f 505 512 510
f 505 506 512
f 507 513 490
f 518 513 507
f 509 517 519
f 476 473 514
f 479 485 493
f 493 516 479
f 516 493 517
f 420 485 479
f 467 458 498
f 467 470 472
f 472 470 471
f 471 470 497
f 471 497 509
f 413 521 523
f 178 408 526
f 178 526 522
f 524 413 523
f 408 520 526
f 526 520 524
f 523 521 525
f 522 526 192
f 525 521 533
f 526 524 537
f 523 525 527
f 192 526 528
f 192 528 197
f 398 426 521
f 426 398 424
f 521 426 533
f 531 529 196
f 530 529 531
f 531 533 426
f 530 531 426
f 534 533 548
f 196 532 531
f 531 535 548
f 533 531 548
f 524 523 527
f 527 525 534
f 526 537 528
f 525 533 534
f 537 524 527
f 199 200 214
f 214 200 203
f 214 203 215
f 202 220 203
f 536 537 527
f 528 537 538
f 197 528 538
f 197 539 540
f 540 207 206
f 224 202 223
f 202 224 220
f 541 553 539
f 539 553 557
f 539 557 542
f 540 539 542
f 540 542 543
f 542 544 543
f 542 557 544
f 543 544 552
f 534 548 547
f 536 545 554
f 545 534 547
f 214 215 216
f 214 217 535
f 554 545 546
f 545 547 546
f 547 551 562
f 546 547 562
f 535 549 550
f 541 554 553
f 541 536 554
f 548 550 551
f 551 550 556
f 550 549 556
f 535 217 559
f 549 535 559
f 549 559 556
f 551 556 561
f 527 545 536
f 331 670 559
f 535 199 214
f 197 538 539
f 537 541 539
f 538 537 539
f 545 527 534
f 535 550 548
f 547 548 551
f 403 410 416
f 403 416 404
f 515 404 416
f 404 515 413
f 404 413 520
f 520 413 524
f 532 535 531
f 535 532 199
f 537 536 541
f 562 551 561
f 552 544 555
f 558 561 556
f 553 554 560
f 560 557 553
f 546 690 554
f 691 556 559
f 670 555 671
f 571 563 560
f 567 558 691
f 566 563 573
f 672 572 565
f 567 569 564
f 567 564 558
f 569 570 564
f 671 672 565
f 691 568 567
f 571 570 576
f 570 569 576
f 567 568 575
f 571 576 577
f 577 563 571
f 575 578 567
f 573 563 577
f 578 569 567
f 576 569 578
f 582 572 672
f 573 577 584
f 582 568 572
f 579 578 575
f 577 576 583
f 576 578 585
f 576 585 581
f 583 580 577
f 581 583 576
f 584 577 580
f 584 580 586
f 585 578 579
f 583 590 589
f 585 579 593
f 586 580 589
f 586 589 588
f 589 580 583
f 581 590 583
f 333 329 256
f 333 259 329
f 259 333 260
f 254 321 257
f 669 667 655
f 591 593 579
f 673 588 591
f 665 589 668
f 350 352 348
f 387 351 348
f 603 353 387
f 351 350 348
f 389 605 349
f 665 588 589
f 350 379 7
f 607 356 9
f 606 356 607
f 9 355 8
f 352 605 389
f 608 380 628
f 604 389 349
f 604 391 394
f 609 395 394
f 605 354 606
f 382 379 350
f 376 382 502
f 366 380 608
f 45 275 379
f 354 605 271
f 607 357 366
f 366 357 365
f 377 41 44
f 375 41 377
f 608 353 605
f 605 606 607
f 605 607 608
f 391 390 393
f 605 352 271
f 609 393 392
f 393 609 391
f 349 605 353
f 604 394 389
f 366 608 607
f 610 357 607
f 610 9 10
f 610 10 13
f 358 357 610
f 357 358 18
f 357 18 501
f 501 18 361
f 610 607 9
f 362 360 361
f 361 360 501
f 502 353 608
f 382 351 502
f 351 382 350
f 384 614 613
f 627 628 373
f 629 617 620
f 624 621 625
f 621 623 618
f 620 617 626
f 383 382 376
f 45 379 382
f 622 375 377
f 373 622 627
f 627 619 616
f 618 616 625
f 619 625 616
f 623 624 626
f 623 621 624
f 623 617 618
f 626 617 623
f 618 625 621
f 626 625 615
f 619 627 615
f 618 617 629
f 627 612 615
f 628 616 618
f 627 616 628
f 618 629 628
f 624 625 626
f 626 615 620
f 380 373 628
f 619 615 625
f 622 383 612
f 622 612 627
f 383 622 384
f 612 620 615
f 612 629 620
f 383 376 629
f 383 611 378
f 614 384 44
f 660 637 674
f 665 637 660
f 648 645 679
f 650 648 679
f 632 600 633
f 668 589 590
f 667 669 590
f 653 593 591
f 659 658 592
f 652 655 686
f 662 663 637
f 674 637 663
f 666 653 591
f 669 662 668
f 668 590 669
f 662 637 668
f 655 663 669
f 593 653 654
f 661 656 664
f 331 219 670
f 653 666 664
f 662 669 663
f 665 668 637
f 663 655 657
f 657 674 663
f 656 658 688
f 686 655 667
f 657 655 652
f 667 654 686
f 658 689 688
f 689 658 659
f 644 647 649
f 654 653 685
f 661 592 658
f 675 657 592
f 674 675 660
f 674 657 675
f 661 658 656
f 592 661 675
f 656 653 664
f 653 656 685
f 657 659 592
f 685 630 594
f 635 631 599
f 598 635 599
f 598 599 596
f 688 598 595
f 688 595 630
f 596 595 598
f 601 633 678
f 636 642 601
f 659 657 687
f 667 593 654
f 652 687 657
f 688 635 598
f 594 651 597
f 642 640 677
f 676 640 642
f 676 642 641
f 676 641 639
f 642 634 633
f 642 633 601
f 636 602 600
f 600 632 636
f 633 600 678
f 636 632 635
f 632 633 634
f 631 635 632
f 630 595 594
f 597 599 631
f 643 639 641
f 643 647 677
f 679 649 643
f 645 648 646
f 645 644 649
f 646 647 644
f 647 643 649
f 643 650 679
f 639 643 677
f 639 677 638
f 638 677 640
f 591 579 673
f 588 673 587
f 579 582 673
f 575 582 579
f 575 568 582
f 582 584 587
f 574 584 582
f 691 565 572
f 691 572 568
f 690 546 562
f 690 562 564
f 217 331 559
f 219 552 555
f 631 594 597
f 631 685 594
f 601 602 636
f 635 642 636
f 645 649 679
f 646 648 647
f 634 642 677
f 685 656 630
f 685 631 632
f 686 654 685
f 686 677 647
f 686 647 652
f 689 635 688
f 689 642 635
f 600 602 678
f 601 678 602
f 683 680 650
f 595 651 594
f 596 651 595
f 680 681 684
f 599 651 596
f 681 680 683
f 682 683 650
f 651 599 597
f 684 648 680
f 650 680 648
f 656 688 630
f 634 685 632
f 677 686 685
f 677 685 634
f 643 659 687
f 643 687 650
f 641 659 643
f 642 689 659
f 642 659 641
f 648 684 647
f 652 647 684
f 681 652 684
f 682 652 681
f 652 682 687
f 650 687 682
f 675 661 660
f 660 661 664
f 660 664 665
f 666 665 664
f 665 666 588
f 588 666 591
f 590 581 667
f 667 581 585
f 593 667 585
f 588 587 586
f 586 587 584
f 574 573 584
f 671 573 574
f 573 671 566
f 219 555 670
f 671 574 672
f 672 574 582
f 582 587 673
f 640 676 638
f 676 639 638
f 644 645 646
f 682 681 683
f 560 554 690
f 566 544 557
f 544 671 555
f 670 565 559
f 558 564 561
f 570 690 564
f 571 690 570
f 670 671 565
f 565 691 559
f 566 671 544
f 566 557 563
f 563 557 560
f 571 560 690
f 561 564 562
f 556 691 558
f 388 387 348
f 388 348 389
f 357 27 12
f 12 42 365
f 90 529 530
f 379 275 7
f 697 696 695
f 698 695 694
f 696 697 692
f 696 692 693
f 693 694 695
f 693 695 696
f 693 692 694
f 697 695 698
f 698 692 697
f 698 694 692
f 701 699 702
f 700 704 699
f 704 702 699
f 703 704 700
f 701 703 699
f 699 703 700
f 702 703 701
f 704 703 702
f 706 710 941
f 707 711 709
f 707 718 712
f 707 912 705
f 912 709 705
f 709 708 706
f 710 706 708
f 709 711 708
f 712 711 707
f 712 710 711
f 710 708 711
f 705 709 913
f 715 713 981
f 713 714 981
f 981 714 980
f 715 718 713
f 709 912 707
f 715 717 718
f 716 717 1005
f 712 718 717
f 716 712 717
f 1005 717 715
f 712 716 719
f 716 933 719
f 719 941 710
f 934 941 719
f 836 837 841
f 758 832 835
f 835 837 836
f 929 889 926
f 723 799 800
f 786 758 836
f 736 737 795
f 737 738 795
f 721 722 752
f 735 727 728
f 735 736 727
f 725 735 728
f 728 733 725
f 730 759 731
f 867 733 732
f 728 732 733
f 739 734 742
f 866 741 724
f 739 742 802
f 878 742 741
f 744 729 726
f 783 784 782
f 745 770 748
f 771 770 750
f 753 751 832
f 752 754 721
f 757 756 753
f 747 746 756
f 747 756 749
f 756 757 749
f 753 832 758
f 757 755 783
f 786 784 758
f 784 755 758
f 763 762 765
f 761 760 762
f 762 766 765
f 764 765 774
f 731 763 768
f 763 764 768
f 772 773 769
f 766 771 774
f 766 760 745
f 776 775 789
f 789 771 750
f 774 775 772
f 773 775 776
f 764 772 769
f 781 776 778
f 780 779 781
f 788 783 790
f 785 844 793
f 792 791 793
f 795 738 794
f 796 806 797
f 799 798 801
f 796 797 799
f 798 799 797
f 738 802 803
f 804 803 802
f 806 805 812
f 810 815 816
f 802 743 807
f 809 824 847
f 812 811 813
f 806 812 815
f 818 816 815
f 820 817 952
f 821 819 818
f 823 825 826
f 960 826 957
f 959 830 960
f 831 828 830
f 831 857 828
f 831 830 961
f 847 854 853
f 837 833 834
f 840 843 844
f 843 838 839
f 845 843 839
f 839 847 848
f 809 847 846
f 859 854 857
f 988 859 831
f 872 869 868
f 865 867 868
f 868 870 872
f 874 882 869
f 879 877 866
f 942 743 878
f 880 879 881
f 886 885 883
f 888 887 889
f 876 887 874
f 903 892 896
f 871 767 898
f 872 875 891
f 921 891 894
f 921 894 892
f 894 897 895
f 779 780 899
f 899 780 781
f 906 781 914
f 901 899 900
f 900 899 906
f 896 895 907
f 911 903 907
f 909 905 906
f 909 907 902
f 905 902 901
f 907 910 908
f 915 920 916
f 936 918 919
f 918 908 910
f 913 917 936
f 920 919 916
f 913 915 705
f 922 924 892
f 926 889 925
f 926 925 928
f 926 937 931
f 930 932 926
f 940 934 931
f 934 940 941
f 933 931 934
f 936 917 939
f 940 935 939
f 927 938 937
f 927 911 908
f 941 940 706
f 706 917 709
f 706 940 939
f 939 917 706
f 958 954 950
f 945 968 947
f 943 945 947
f 949 950 948
f 964 950 949
f 954 820 953
f 954 958 821
f 948 950 953
f 948 953 955
f 959 956 962
f 831 987 988
f 987 962 963
f 958 950 965
f 962 966 967
f 967 966 964
f 945 944 969
f 968 969 970
f 955 947 976
f 975 976 971
f 1004 973 974
f 705 915 979
f 850 978 851
f 982 850 1001
f 979 980 714
f 983 1006 981
f 983 993 1006
f 996 984 982
f 996 995 993
f 994 987 963
f 994 989 861
f 988 987 994
f 991 862 990
f 992 862 991
f 1000 998 999
f 1002 1001 1000
f 1005 715 1004
f 715 981 1006
f 1004 1007 1005
f 729 721 754
f 854 828 857
f 963 993 994
f 1006 973 1004
f 802 738 739
f 742 743 802
f 723 796 799
f 970 969 886
f 932 890 929
f 836 758 835
f 767 768 898
f 811 951 952
f 830 959 961
f 986 985 977
f 990 858 861
f 735 725 740
f 727 736 726
f 795 722 720
f 736 795 720
f 736 720 744
f 720 722 721
f 720 721 729
f 744 720 729
f 795 723 722
f 795 796 723
f 722 723 800
f 752 722 800
f 725 724 740
f 725 733 724
f 866 724 873
f 732 870 867
f 867 870 868
f 727 726 728
f 730 726 759
f 729 759 726
f 730 732 728
f 726 730 728
f 730 731 732
f 732 731 870
f 870 731 767
f 737 734 738
f 734 739 738
f 734 741 742
f 734 735 740
f 734 736 735
f 736 734 737
f 734 740 741
f 740 724 741
f 742 878 743
f 736 744 726
f 745 747 770
f 766 774 765
f 764 774 772
f 745 746 747
f 748 770 771
f 746 761 729
f 761 746 760
f 746 745 760
f 749 750 770
f 752 751 753
f 752 800 751
f 751 800 832
f 754 752 756
f 756 752 753
f 746 729 754
f 746 754 756
f 753 755 757
f 747 749 770
f 753 758 755
f 749 757 788
f 757 783 788
f 783 755 784
f 761 762 759
f 759 762 763
f 729 761 759
f 731 759 763
f 763 765 764
f 760 766 762
f 731 768 767
f 764 769 898
f 768 764 898
f 773 777 769
f 748 771 745
f 745 771 766
f 774 771 775
f 771 789 775
f 772 775 773
f 777 773 776
f 776 789 778
f 769 779 898
f 769 777 779
f 781 777 776
f 777 781 779
f 781 778 914
f 787 784 786
f 844 787 840
f 782 787 785
f 782 784 787
f 783 782 785
f 840 787 841
f 787 844 785
f 749 788 750
f 793 791 790
f 778 788 791
f 750 788 789
f 789 788 778
f 791 788 790
f 790 783 785
f 785 793 790
f 791 792 778
f 914 778 792
f 914 792 919
f 792 793 985
f 824 854 847
f 794 803 805
f 796 794 805
f 795 794 796
f 797 806 814
f 796 805 806
f 797 814 798
f 798 814 815
f 799 801 833
f 800 799 833
f 801 798 808
f 809 801 808
f 846 801 809
f 803 794 738
f 803 804 811
f 803 811 812
f 805 803 812
f 810 798 815
f 802 807 804
f 804 807 811
f 810 808 798
f 809 808 824
f 808 810 822
f 808 822 824
f 818 813 817
f 827 810 819
f 815 812 813
f 810 816 819
f 814 806 815
f 815 813 818
f 813 811 817
f 811 952 817
f 819 816 818
f 818 817 820
f 821 818 820
f 819 821 827
f 822 825 823
f 822 810 825
f 825 810 827
f 824 822 823
f 854 824 828
f 826 827 957
f 825 827 826
f 823 826 829
f 829 826 960
f 829 830 828
f 829 960 830
f 824 823 829
f 828 824 829
f 852 978 977
f 849 853 856
f 849 856 863
f 998 997 863
f 801 846 834
f 800 833 832
f 833 801 834
f 838 834 839
f 834 846 839
f 832 833 835
f 835 833 837
f 786 836 841
f 834 842 841
f 837 834 841
f 842 834 838
f 851 845 849
f 842 840 841
f 838 840 842
f 848 845 839
f 843 840 838
f 841 787 786
f 844 843 845
f 846 847 839
f 848 847 853
f 849 845 848
f 848 853 849
f 997 849 863
f 844 845 852
f 845 851 852
f 852 851 978
f 851 849 997
f 850 851 997
f 793 852 985
f 844 852 793
f 985 852 977
f 853 855 856
f 855 859 860
f 856 855 864
f 853 854 859
f 853 859 855
f 860 859 861
f 855 860 858
f 859 857 831
f 859 988 861
f 858 860 861
f 864 855 862
f 855 858 862
f 862 858 990
f 862 992 999
f 863 856 864
f 998 863 864
f 998 864 999
f 864 862 999
f 865 869 873
f 876 893 887
f 887 893 924
f 733 873 724
f 733 865 873
f 866 873 882
f 873 869 882
f 876 869 872
f 733 867 865
f 865 868 869
f 870 767 871
f 870 871 875
f 872 870 875
f 874 869 876
f 876 872 893
f 879 866 882
f 741 877 878
f 877 880 878
f 878 881 884
f 880 877 879
f 866 877 741
f 879 882 881
f 880 881 878
f 881 882 883
f 883 882 874
f 942 878 884
f 884 881 885
f 884 885 944
f 884 944 942
f 885 881 883
f 883 874 886
f 969 944 885
f 969 885 886
f 886 887 888
f 874 887 886
f 887 924 923
f 887 923 925
f 887 925 889
f 970 888 890
f 970 886 888
f 890 888 889
f 890 889 929
f 928 927 937
f 871 891 875
f 871 898 891
f 898 897 891
f 872 891 921
f 893 872 921
f 892 894 895
f 894 891 897
f 895 897 902
f 892 895 896
f 901 900 905
f 901 898 899
f 897 898 901
f 779 899 898
f 899 781 906
f 902 897 901
f 895 902 907
f 911 907 904
f 896 907 903
f 909 902 905
f 909 906 910
f 906 905 900
f 904 907 908
f 907 909 910
f 919 918 914
f 916 792 985
f 916 985 915
f 919 792 916
f 918 910 914
f 914 910 906
f 936 919 920
f 913 920 915
f 913 709 917
f 920 913 936
f 924 921 892
f 924 893 921
f 922 892 903
f 911 922 903
f 924 922 928
f 931 937 940
f 923 924 925
f 925 924 928
f 926 928 937
f 922 927 928
f 927 922 911
f 929 926 932
f 926 931 930
f 932 930 933
f 1007 932 933
f 933 930 931
f 918 935 938
f 918 939 935
f 938 927 908
f 908 911 904
f 937 938 935
f 936 939 918
f 940 937 935
f 938 908 918
f 946 947 955
f 807 743 942
f 942 943 807
f 811 807 951
f 807 946 951
f 943 942 945
f 942 944 945
f 943 947 807
f 807 947 946
f 949 948 955
f 949 974 964
f 964 974 973
f 965 950 964
f 964 973 967
f 967 973 993
f 951 946 953
f 820 952 951
f 821 820 954
f 827 821 958
f 820 951 953
f 950 954 953
f 946 955 953
f 960 957 956
f 957 827 958
f 966 957 965
f 956 957 966
f 957 958 965
f 960 956 959
f 959 962 961
f 962 831 961
f 987 831 962
f 962 956 966
f 966 965 964
f 963 962 967
f 963 967 993
f 945 969 968
f 976 968 970
f 968 976 947
f 971 970 890
f 971 890 972
f 971 976 970
f 975 971 972
f 972 890 932
f 972 932 1007
f 1004 975 972
f 975 955 976
f 975 974 955
f 974 949 955
f 1004 974 975
f 996 982 1003
f 980 978 850
f 980 850 982
f 978 979 977
f 980 979 978
f 850 997 1001
f 707 713 718
f 707 705 979
f 707 979 714
f 714 713 707
f 981 980 983
f 984 993 983
f 993 973 1006
f 996 993 984
f 983 982 984
f 980 982 983
f 1001 1003 982
f 915 985 986
f 986 979 915
f 986 977 979
f 989 995 991
f 990 989 991
f 861 988 994
f 990 861 989
f 989 994 995
f 992 991 1002
f 995 994 993
f 1002 991 995
f 995 996 1002
f 997 998 1000
f 1001 997 1000
f 1000 999 992
f 1003 1001 1002
f 1000 992 1002
f 1003 1002 996
f 1006 1004 715
f 1007 1004 972
f 1005 1007 716
f 719 710 712
f 1007 933 716
f 719 933 934
