# decimated from body_3d.obj (Moraes reconstruction)
v -1.833283 24.813719 -77.653770
v -3.777933 25.360831 -77.478417
v -1.577796 25.435284 -74.266003
v -3.758088 26.022061 -79.763371
v 0.442850 28.285176 -72.562770
v 0.267019 26.684476 -72.111057
v -1.118797 26.446167 -72.930400
v 0.645981 26.372675 -70.218198
v -0.288715 25.978162 -70.375428
v 0.060944 22.848533 -74.520353
v -2.988070 23.399172 -69.006915
v -1.964921 20.414093 -74.670093
v -0.762094 16.516680 -65.485720
v -0.107254 15.726267 -72.013448
v -3.049652 15.518807 -71.143107
v -5.285283 11.517239 -67.091916
v -5.359597 16.443452 -58.521885
v 0.230872 25.947781 -66.297209
v -3.221126 18.892164 -65.065472
v -7.219128 12.438691 -83.134693
v -4.488808 13.811764 -87.916505
v -0.704987 8.310267 -70.008126
v -4.864602 23.855071 -77.974035
v -2.316801 24.925857 -76.921267
v -2.829020 24.857263 -76.086447
v -1.536498 22.832002 -78.816147
v -4.186664 22.104136 -77.676351
v -4.557521 23.578628 -47.931245
v -15.584570 19.160834 -48.080695
v -20.233041 15.729452 -56.568664
v -4.831579 8.344182 -62.092620
v -9.969472 5.393851 -58.894357
v -5.577485 11.359573 -63.050953
v -23.577982 8.259442 -53.806842
v -7.445721 0.255556 -49.465627
v -20.679887 5.817621 -48.169479
v -15.967201 7.991788 -46.214859
v -24.759738 12.248951 -51.081140
v -20.628274 16.074115 -46.555405
v -16.901759 12.474516 -45.415839
v -23.990210 16.482501 -34.245162
v -19.626287 14.322594 -27.836643
v -9.860601 22.769403 -43.252733
v -3.863248 23.596588 -36.677933
v 1.282877 23.145322 -48.352484
v 6.639801 24.485037 -0.907634
v 4.436715 28.046856 -2.454135
v 2.524710 28.567539 -5.036185
v 5.708898 24.487987 -2.581009
v 0.682115 29.160588 -3.047228
v 6.929016 24.238200 0.752881
v 3.935412 26.321867 -1.375534
v 6.073831 23.089511 1.970021
v 4.849584 28.026454 -1.553314
v -0.707456 28.804696 -1.252655
v 2.113652 27.570250 -0.758321
v 5.135293 22.903434 2.389571
v 3.162042 27.338974 0.247077
v 1.527399 28.024059 1.343869
v 3.707208 24.747147 2.824326
v -0.633862 25.956851 -1.747280
v 1.347683 26.309511 0.569039
v 1.046279 25.647213 3.197320
v -0.002354 25.437606 2.418447
v 2.043776 24.208669 2.621154
v 3.372525 23.657792 -8.982436
v 5.235360 23.555243 -6.385957
v 2.161115 23.008136 -7.770911
v -1.975928 27.925205 0.560880
v 0.022927 26.634451 0.586144
v 7.420943 24.127739 -2.299189
v -3.131674 26.372244 0.789766
v -1.546677 24.242293 -11.513893
v 0.712023 25.536995 -8.499746
v 5.619128 27.484672 -4.581246
v 3.347482 27.032417 -3.361178
v -26.667525 13.603771 -26.627195
v -24.078681 15.841499 -29.562335
v -17.653669 12.495169 -25.116581
v -10.023150 28.131048 -7.920543
v -20.904904 9.822187 -24.372164
v -9.854455 25.193335 -7.393481
v -6.427065 28.520639 -9.870993
v -7.511478 24.472376 -3.974389
v -5.551662 24.367584 -7.539798
v -1.165071 25.790782 -72.316602
v -1.687177 25.498345 -70.255301
v -15.053970 4.385011 -47.417984
v -24.316602 9.814849 -23.600133
v -0.306894 25.244225 -7.980113
v -6.923676 25.466319 -10.161930
v -12.419821 10.191026 -28.150384
v -14.256389 15.881199 -37.111097
v -10.084312 5.225637 -27.578897
v -0.437658 5.625888 -19.726101
v -11.675762 18.563655 -23.854336
v -5.439758 4.002965 -23.255133
v -0.003282 22.903313 -16.769507
v -3.128241 23.050090 -23.798537
v -14.851775 10.759377 -14.504682
v -10.701235 7.006049 -19.134172
v -13.805616 5.288440 -0.913004
v -4.936523 1.047134 -2.614568
v -4.614594 6.034612 7.301749
v -16.244463 17.029691 -1.238124
v -7.082263 23.167066 -8.574957
v -13.763154 20.246828 -9.792374
v -8.996161 21.768212 0.356575
v -2.681850 19.468252 1.787194
v -0.431739 10.049779 3.719490
v -16.763380 13.836707 10.951112
v 0.124456 14.803248 3.905262
v -12.418485 8.040591 16.986852
v -4.815530 22.404140 14.996478
v -11.248419 23.246181 16.202684
v 1.054895 14.364572 37.571223
v -9.334871 19.958557 36.285052
v -9.782148 15.589795 39.310858
v -1.452750 11.430972 42.424112
v -0.722365 20.773830 39.938050
v -5.533886 21.773681 43.105419
v -6.476594 11.374190 40.695590
v 0.313511 13.245769 49.371186
v -4.420791 18.315841 52.545511
v -9.883254 8.692563 55.730455
v -2.538137 5.546665 53.906379
v -8.866581 15.770232 55.158582
v 1.443099 11.097876 62.089474
v 0.819388 7.716670 84.180357
v 6.709540 20.786823 99.224738
v 9.032202 21.043084 99.158824
v 7.064221 22.129426 101.989793
v -0.016109 25.872236 -77.621858
v -2.824861 22.286669 -76.356660
v -3.692549 22.800738 -67.206693
v -6.049413 22.492177 -73.988208
v -3.895021 24.798972 -83.352055
v -4.687387 7.008792 -78.118344
v -7.088814 12.734120 -75.457860
v -6.787515 16.805971 -76.406513
v -6.943887 15.761650 -75.378648
v -7.937187 14.389901 -76.974004
v -8.252814 13.904121 -74.563267
v -6.126638 23.026015 -78.286523
v -6.797634 14.637970 -74.618582
v -6.835354 16.042100 -73.360930
v -6.260781 15.921403 -71.865341
v 6.360874 18.806519 99.949857
v 7.966371 18.147136 99.565001
v 5.361742 22.070938 102.266538
v 3.446884 18.549312 98.450860
v 3.427891 21.028639 102.000620
v 4.588590 21.694927 101.646106
v 5.154583 20.461314 102.528682
v 4.860436 18.356806 100.490133
v 2.855118 17.317388 100.782598
v 2.022328 20.097592 102.394184
v 1.970676 18.644102 99.425339
v 0.206267 18.652318 101.956327
v 8.301295 22.387906 101.647770
v 7.895417 18.173101 96.180840
v -1.514498 13.681990 98.649835
v -0.919712 12.147394 82.812375
v -4.156625 11.892398 82.278038
v 8.286643 14.607267 97.035251
v -0.016025 12.315344 99.355103
v 4.627840 10.938101 93.334474
v -1.966727 0.730435 87.147261
v -4.158051 6.281668 88.105551
v 3.564631 10.124136 89.268267
v 2.504450 0.112049 89.573342
v -1.402006 4.701352 83.605789
v -1.866022 1.369092 91.340239
v 5.171487 20.851382 99.097292
v 3.395089 20.163301 101.705057
v 1.511924 19.150418 101.811904
v 0.484303 17.758916 99.798371
v 1.443394 17.195719 101.387190
v 5.280100 18.255360 96.471284
v 2.395823 25.383916 -77.655997
v 3.515801 25.083626 -77.176971
v 2.525501 26.141887 -79.567658
v 1.687797 24.726306 -77.633635
v 1.322243 25.808436 -73.011619
v 0.885895 24.889021 -67.887461
v 2.907224 15.518837 -71.641321
v 4.375533 21.757005 -67.824238
v 5.480992 11.091893 -63.494755
v 1.153065 19.895918 -64.313378
v 0.639069 18.127427 -56.913590
v 6.209120 15.407580 -71.990166
v 5.366073 8.667623 -62.170621
v 2.844918 9.433774 -69.722148
v 5.396341 23.020106 -82.811129
v 1.218327 6.181869 -74.827514
v 1.154890 24.292648 -85.384358
v 4.060299 17.153767 -66.513151
v 7.242487 12.424149 -83.057912
v 4.739669 7.002847 -79.951852
v 3.794304 17.875194 -87.723064
v 0.008539 7.001980 -60.120958
v 4.681144 24.226014 -77.743098
v 2.346869 22.609788 -76.287863
v 4.274214 22.515060 -76.747888
v 4.107752 23.269082 -79.243000
v 21.200812 16.599629 -55.170451
v 5.214377 16.197187 -59.236878
v 22.409094 14.399158 -43.260409
v 17.714984 10.891059 -60.061067
v 10.951576 5.219671 -58.550160
v 11.072554 1.754953 -49.036617
v 7.678422 0.443406 -50.055592
v 23.860270 9.225176 -52.673601
v 15.250674 18.970116 -48.392536
v 23.065628 9.468737 -42.126803
v 18.638704 5.544681 -49.448103
v 15.494388 13.265895 -45.202222
v 21.341486 17.013170 -33.841258
v 10.076149 22.695308 -43.441172
v 14.294709 16.088158 -36.535434
v -4.088314 23.545825 -2.023828
v -8.760196 23.428750 1.945626
v -7.972326 22.486232 3.399194
v -4.324148 25.023152 1.361740
v -8.219874 22.798947 4.527024
v -5.864025 22.004501 3.706050
v -7.150252 22.808959 5.533665
v 0.498952 23.487090 1.799472
v -5.937376 22.358103 4.979691
v -5.159401 21.967259 6.137887
v -2.574226 22.814208 2.044052
v -1.954862 22.215532 4.533201
v -6.283362 22.347776 -2.710088
v -3.162784 24.484816 -4.975512
v -1.413535 25.487729 0.156717
v -0.580669 24.992393 1.486144
v 2.308939 24.460291 1.475272
v -0.703169 22.664640 -1.123296
v 3.907399 22.908794 1.146259
v -4.596926 25.619788 -1.864634
v -0.687135 23.741005 -5.288026
v -3.321659 22.014354 -5.133351
v 6.644512 23.193493 -7.906422
v -1.342409 23.608520 0.296561
v 1.932845 22.580227 1.504380
v 24.652569 15.652591 -30.303832
v 24.692765 10.275804 -24.490865
v 19.156208 14.306693 -27.782468
v 26.291850 15.159040 -27.112917
v 23.546969 14.714724 -21.192236
v 17.923005 11.798708 -26.308139
v 8.194281 26.788180 -7.675086
v 10.955505 19.644608 -17.105020
v -3.203436 24.425999 -1.245807
v -5.187633 22.217611 -5.595121
v -1.483474 23.254345 -7.655011
v 3.323871 19.975367 -69.177212
v 3.155590 23.091695 -73.136478
v 6.083708 23.744349 -78.982833
v 13.354260 19.889942 -51.172778
v 18.409094 15.647019 -46.100893
v 16.687798 5.626947 -48.183316
v 21.749613 9.361894 -25.584146
v 12.596129 18.066689 -13.800054
v 1.134056 26.748926 -9.194887
v 17.522283 9.475412 -33.495110
v 14.758236 7.654772 -45.952475
v 7.696814 24.129714 -7.529426
v 7.002605 27.759330 -10.230975
v 4.944156 26.372648 -11.356423
v -0.326743 2.381398 -43.099316
v 10.754137 7.353416 -20.674452
v 6.179565 2.286170 -30.061916
v 12.564019 11.949279 -25.097329
v 5.168885 23.306430 -39.090380
v 4.073761 23.090578 -21.695212
v 12.062300 18.114020 -23.666975
v 6.892504 23.625432 -9.358383
v 14.120033 7.475616 -13.234822
v 3.947536 5.239901 -18.167098
v 0.054108 4.306525 -1.531340
v 8.684651 1.943969 -2.413992
v 2.354611 1.625334 -2.626759
v 1.754554 8.617579 4.754151
v 16.227486 17.035919 -5.492489
v 17.388720 12.241724 10.050981
v 11.129636 22.109376 -7.989120
v 9.012721 22.070869 2.705787
v 8.610858 5.478709 9.284362
v 12.774738 23.000017 14.591499
v 2.698975 18.542614 3.135269
v 14.723629 6.389801 5.168690
v 15.624785 19.377462 6.975600
v 7.459648 21.615089 44.823511
v 11.881081 18.808708 36.868561
v 12.127910 15.467360 38.043625
v 8.370447 11.143427 40.203592
v 10.654309 17.667626 51.213689
v 6.873740 17.715274 54.847413
v 4.868877 5.509078 55.401082
v 12.984881 12.040598 55.982101
v 2.488815 13.791146 49.167106
v 11.292912 7.773663 53.204995
v 3.872132 11.749709 43.009285
v 5.931633 5.114365 83.501170
v 3.765641 11.680259 80.974208
v -2.624306 14.061102 103.479119
v -1.465389 12.442978 105.952076
v 0.197963 15.789257 106.523914
v 1.180092 14.261061 106.396486
v 1.485567 24.927397 -76.554589
v 1.796888 25.328553 -70.302657
v 6.026451 23.207826 -74.182972
v 1.576691 22.562389 -78.495707
v 0.068659 27.147639 -70.805809
v 4.462681 9.604095 -86.327655
v -1.772146 5.696062 -82.929532
v 8.018460 14.356697 -76.920591
v 6.987790 15.611179 -75.311439
v 7.307317 15.730749 -72.618311
v 8.272067 13.941834 -74.531977
v 7.163087 15.584931 -76.981586
v 7.119716 13.488227 -74.789623
v 6.473051 15.017605 -74.402159
v -0.522588 13.512178 100.522246
v 1.095863 14.693912 102.577875
v 0.474172 12.368844 103.587113
v 8.587665 1.943747 84.524301
v 2.969731 15.422733 106.231895
v 2.387056 12.978278 103.752079
v 4.470918 12.525836 103.369245
v 3.535193 15.075952 105.168550
v 4.773640 15.133337 105.036701
v 3.917662 14.097914 102.150779
v 6.201812 12.618184 103.175913
v -0.803785 15.318989 106.574967
v 8.454453 12.053449 99.765553
v 4.911302 13.006678 84.829118
v 3.986806 13.052638 97.480832
v 0.861499 8.416809 93.293687
v 7.917899 8.907134 99.160232
v 4.860954 -0.536907 87.780243
v 9.495627 1.533874 88.868373
v 3.996569 6.047226 84.036397
v 8.306188 10.120929 91.646544
v 8.603049 7.898019 85.315863
v 1.015109 12.765922 25.871521
v 3.107659 20.828845 39.876274
v 1.314172 11.172640 60.408780
v 1.656563 15.611981 105.722209
v 6.633940 14.461939 103.971286
v 5.183701 14.446988 104.326755
v 5.832209 13.765595 101.734254
v -1.012844 8.984363 100.823884
v 5.329595 22.898248 24.633091
v 2.977053 25.284708 -78.802767
v 2.630094 21.573840 -78.166379
v 3.551139 23.853945 -76.197684
v -3.671659 24.962444 -76.844591
v -3.006576 23.952180 -79.797903
v -2.434090 21.599099 -77.303921
v -4.180603 14.306682 -66.633653
v -6.436649 14.045725 -64.337569
v -5.041759 13.465691 -65.456613
v -5.423492 14.888681 -64.993865
v -5.003239 16.574969 -68.750569
v -6.777369 17.877204 -68.767575
v -7.764261 18.207460 -68.146008
v -6.356859 17.228321 -66.979897
v 7.014383 9.579370 -80.789863
v 8.675678 10.349491 -74.450696
v 5.013983 7.132918 -76.528547
v 3.140192 4.738987 -78.957416
v 6.520569 8.044731 -73.623881
v 4.231492 3.995914 -74.191339
v 1.789301 3.757674 -73.388076
v 1.682045 4.432438 -82.182968
v 4.702530 9.176705 -86.202130
v 4.669127 5.723228 -82.224988
v 7.044740 13.176846 -84.328316
v 1.136733 8.677755 -87.068818
v 3.365456 13.771559 -88.310232
v -1.207618 13.133781 -89.005645
v 6.379994 4.693463 -68.536882
v 6.125814 6.983331 -64.137521
v 5.820450 5.893423 -59.313650
v 9.533058 14.306072 -70.537739
v 8.336329 11.666196 -70.057886
v 7.091520 10.362532 -68.493544
v 7.729874 7.897610 -62.610132
v 4.042067 5.972706 -68.506630
v 3.521266 3.711630 -66.993161
v 0.059476 3.328015 -74.230643
v 0.405128 5.167801 -66.440620
v 2.764099 4.686322 -64.569640
v 5.968382 6.162196 -61.682102
v 3.364302 3.553211 -57.119500
v 0.577664 5.053850 -57.457162
v 1.866836 6.388615 -57.348889
v 7.577489 11.071402 -64.839549
v 5.009865 12.804696 -65.805982
v 6.701670 14.513211 -64.135550
v 5.072528 12.380575 -63.758583
v 2.156141 11.517790 -61.881791
v 1.391765 16.696528 -62.452257
v 8.207702 13.057513 -80.454274
v 7.785631 20.781819 -80.760393
v 8.574610 17.642169 -80.468621
v 9.519658 15.575501 -75.737728
v 8.095137 19.086635 -74.835452
v 4.463119 20.382139 -87.397755
v 7.234602 19.591229 -83.981237
v -0.173015 20.086405 -88.266404
v 5.848224 20.700113 -80.363106
v 4.673675 23.341588 -81.818344
v 3.977892 24.111134 -86.296354
v 6.159571 24.049508 -83.059688
v 3.225577 25.679784 -83.526314
v -0.822681 25.680233 -83.497664
v 2.104183 24.498815 -82.790301
v 4.161911 24.153938 -79.240891
v 4.807151 22.411149 -77.053161
v 1.426107 22.492238 -76.083631
v 7.541143 18.053716 -68.164597
v 9.614682 15.315379 -64.732965
v 6.166224 18.155189 -69.188066
v 6.030256 17.653712 -66.666145
v 4.360203 16.375080 -68.600376
v 6.555248 19.983354 -72.585518
v 4.083810 21.902760 -67.030677
v -1.409145 19.924417 -66.494295
v 1.481127 19.651033 -66.745127
v 5.143879 22.813237 -70.109323
v 3.655716 24.411863 -72.289273
v 3.179758 25.415722 -69.378543
v 3.011343 25.909691 -71.857136
v 1.452241 24.951964 -69.932805
v -0.466165 26.948285 -67.692727
v 3.684428 24.457127 -64.335066
v -0.396035 3.283166 -78.813248
v -1.633152 3.569543 -73.339344
v -4.211260 3.474441 -74.304476
v -1.814966 4.814365 -82.752998
v -4.923032 5.757421 -82.334863
v -4.036724 5.056721 -78.009463
v -1.097384 8.395542 -86.986194
v -2.596751 8.705500 -86.301429
v -5.126062 10.618507 -87.199628
v -6.519846 8.795938 -82.341742
v -7.453313 13.962927 -84.694532
v -7.100221 9.306024 -78.172577
v -8.146268 9.142786 -73.257639
v -9.323851 16.145246 -77.611548
v -3.346658 3.359439 -67.696729
v -6.229306 4.173393 -67.390852
v -3.987825 5.516142 -67.715224
v -5.979108 5.031636 -63.778724
v -2.799090 4.375307 -64.844489
v -1.197161 5.264037 -57.455977
v -3.609870 3.699015 -57.452591
v -6.738211 7.046276 -60.013174
v -5.542216 6.162400 -58.876804
v -3.678169 14.058665 -64.812329
v -2.293768 6.321916 -57.097783
v -5.679077 10.850181 -63.956130
v -4.396605 12.150753 -62.239571
v -5.157016 4.809329 -71.840436
v -6.754919 7.413997 -71.637503
v -8.255641 10.915703 -70.554948
v -6.264775 7.779274 -65.691784
v -8.535807 14.028938 -73.765246
v -10.270260 15.906049 -66.275510
v -7.944229 9.163293 -61.604244
v -6.604084 11.015218 -61.743209
v -7.977393 10.458244 -65.851705
v -7.755066 11.962976 -64.106874
v -2.982769 18.244833 -88.042929
v -4.015425 23.752104 -85.902684
v -4.504116 20.359033 -86.655340
v -5.371113 22.983345 -80.985195
v -0.161299 24.923938 -85.327668
v -4.294286 25.031578 -83.238573
v -3.014746 24.021263 -82.692164
v -0.051067 22.313324 -78.106199
v 0.112149 25.764539 -74.166544
v -2.027386 24.516490 -73.441878
v -3.965445 24.112521 -79.400497
v -5.015580 22.246361 -77.143869
v -9.253736 16.801221 -82.449450
v -8.718844 19.758660 -79.303809
v -9.248124 18.699537 -74.116474
v -6.121646 20.410578 -80.017265
v -7.263437 22.481140 -81.733840
v 0.371836 17.722361 -64.488908
v -2.584169 17.470739 -67.710852
v -5.490654 18.897757 -68.810104
v -4.504656 21.882545 -66.687366
v -1.619290 16.474652 -62.519099
v -0.482560 25.624350 -70.247506
v -1.330816 25.833846 -65.010172
v -1.687135 26.574430 -71.764627
v -4.298384 24.188271 -69.486662
v -5.094916 24.261978 -66.268906
v -0.441717 22.770879 -64.571648
v 0.669293 24.769101 -63.168855
v -3.996212 24.345962 -63.622315
v -6.637473 20.455201 -72.639853
v -9.031779 17.596510 -69.744190
f 2 4 144
f 3 7 5
f 87 86 9
f 11 87 185
f 11 185 13
f 12 14 10
f 15 13 14
f 190 189 19
f 190 19 17
f 16 33 17
f 33 16 31
f 138 20 317
f 317 20 21
f 2 1 4
f 133 4 1
f 1 24 133
f 147 16 19
f 139 22 16
f 144 4 137
f 20 137 21
f 31 22 201
f 18 135 19
f 16 17 19
f 200 21 196
f 16 22 31
f 196 21 137
f 25 24 1
f 1 26 25
f 2 23 26
f 2 26 1
f 25 27 23
f 23 27 26
f 24 25 23
f 29 39 40
f 17 30 28
f 30 29 28
f 30 39 29
f 29 40 92
f 29 92 93
f 190 28 45
f 17 33 30
f 38 39 30
f 38 41 39
f 33 31 32
f 17 28 190
f 31 201 32
f 30 33 34
f 34 33 32
f 32 35 34
f 201 35 32
f 30 34 38
f 37 92 40
f 41 38 34
f 37 40 42
f 77 34 36
f 39 42 40
f 41 34 77
f 37 42 81
f 43 93 44
f 28 43 44
f 43 28 29
f 45 28 44
f 71 75 47
f 71 47 46
f 75 48 47
f 48 76 47
f 46 49 71
f 47 76 49
f 76 50 54
f 52 76 54
f 56 52 53
f 51 52 54
f 55 59 58
f 58 59 60
f 55 70 59
f 61 56 62
f 70 61 62
f 70 69 63
f 63 69 64
f 72 64 69
f 70 64 72
f 63 64 65
f 65 64 70
f 74 67 66
f 68 66 67
f 74 68 67
f 51 54 56
f 51 56 53
f 50 56 54
f 60 57 58
f 56 55 58
f 63 65 70
f 76 75 71
f 76 71 49
f 46 47 49
f 53 52 51
f 56 58 62
f 62 58 60
f 70 62 59
f 59 62 60
f 57 60 58
f 70 72 61
f 56 61 52
f 61 76 52
f 78 41 77
f 77 36 89
f 81 42 79
f 80 77 89
f 80 78 77
f 80 89 82
f 80 83 78
f 78 83 42
f 82 81 79
f 91 82 79
f 56 50 55
f 69 70 55
f 74 90 68
f 74 66 73
f 68 90 85
f 68 85 66
f 66 85 73
f 73 91 83
f 61 84 85
f 72 69 55
f 13 15 11
f 12 86 11
f 86 87 11
f 41 42 39
f 11 15 12
f 50 83 80
f 55 50 80
f 91 79 83
f 72 80 82
f 201 271 35
f 72 55 80
f 48 50 76
f 76 90 75
f 90 76 61
f 72 82 84
f 48 75 83
f 83 75 74
f 50 48 83
f 85 84 82
f 73 85 91
f 61 72 84
f 85 90 61
f 88 37 36
f 36 37 89
f 89 37 81
f 82 89 81
f 42 83 79
f 41 78 42
f 74 73 83
f 82 91 85
f 75 90 74
f 88 94 92
f 88 92 37
f 35 94 88
f 35 97 94
f 271 97 35
f 92 96 93
f 271 95 97
f 97 101 94
f 92 107 96
f 93 43 29
f 96 44 93
f 99 44 96
f 96 107 99
f 92 100 107
f 94 100 92
f 101 100 94
f 97 95 101
f 95 281 103
f 281 104 103
f 101 102 100
f 108 109 106
f 107 115 108
f 95 103 101
f 105 115 107
f 34 35 36
f 88 36 35
f 101 103 102
f 104 113 103
f 112 109 114
f 110 104 281
f 103 113 102
f 114 108 115
f 111 102 113
f 121 115 117
f 117 111 118
f 113 122 118
f 121 117 118
f 118 127 121
f 123 120 124
f 124 121 127
f 122 126 125
f 123 126 119
f 119 126 122
f 125 118 122
f 118 125 127
f 127 164 124
f 125 164 127
f 172 128 163
f 126 172 169
f 169 125 126
f 163 124 164
f 164 125 169
f 144 23 2
f 24 3 133
f 3 87 7
f 7 6 5
f 25 26 134
f 5 133 3
f 87 135 18
f 136 140 147
f 136 147 19
f 22 138 195
f 139 138 22
f 16 147 139
f 87 24 23
f 24 87 3
f 135 136 19
f 87 136 135
f 23 144 87
f 140 136 144
f 134 27 25
f 134 26 27
f 9 315 87
f 87 144 136
f 87 315 7
f 12 15 14
f 12 10 86
f 140 144 20
f 20 144 137
f 146 143 147
f 146 141 145
f 143 146 145
f 146 140 141
f 147 143 139
f 142 139 143
f 146 147 140
f 145 141 143
f 141 142 143
f 20 138 139
f 142 141 140
f 139 142 140
f 20 139 140
f 317 195 138
f 171 173 168
f 172 171 168
f 177 178 157
f 179 151 174
f 171 172 129
f 169 168 173
f 169 172 168
f 163 164 162
f 163 170 129
f 179 170 163
f 173 162 169
f 162 164 169
f 165 166 167
f 175 156 158
f 175 178 156
f 163 162 151
f 163 151 179
f 171 166 162
f 166 171 167
f 162 173 171
f 179 161 170
f 148 149 160
f 165 149 148
f 165 161 131
f 165 131 149
f 160 149 131
f 132 150 155
f 170 161 165
f 165 167 170
f 131 130 160
f 154 151 153
f 155 151 154
f 155 150 151
f 150 174 151
f 132 155 148
f 132 148 174
f 174 150 132
f 148 179 174
f 130 179 148
f 152 155 154
f 156 155 152
f 156 151 158
f 152 151 156
f 163 128 124
f 124 128 123
f 121 124 120
f 121 120 114
f 108 114 109
f 179 130 161
f 131 161 130
f 152 153 151
f 175 157 178
f 157 158 177
f 151 177 158
f 166 148 155
f 178 177 176
f 176 177 159
f 159 178 176
f 160 130 148
f 162 177 151
f 148 166 165
f 156 178 166
f 155 156 166
f 159 177 162
f 162 166 159
f 178 159 166
f 171 170 167
f 171 129 170
f 172 126 128
f 126 123 128
f 119 116 123
f 120 123 116
f 152 154 153
f 158 157 175
f 104 110 116
f 104 116 119
f 110 112 116
f 114 115 121
f 115 111 117
f 111 113 118
f 116 112 120
f 112 114 120
f 119 122 104
f 122 113 104
f 115 105 111
f 183 182 133
f 133 182 4
f 5 6 184
f 185 87 312
f 257 13 185
f 10 14 186
f 186 13 257
f 186 257 258
f 13 186 14
f 18 312 8
f 207 191 197
f 207 189 190
f 191 207 188
f 191 188 193
f 188 192 193
f 199 316 198
f 313 191 322
f 313 322 259
f 259 322 194
f 316 317 21
f 323 191 193
f 323 195 199
f 187 197 191
f 198 200 194
f 22 193 201
f 200 316 21
f 193 192 201
f 189 18 19
f 18 189 187
f 196 194 200
f 204 203 181
f 180 183 314
f 202 180 205
f 314 205 180
f 205 204 202
f 181 202 204
f 206 261 208
f 214 217 261
f 260 219 214
f 214 220 217
f 190 45 260
f 209 192 188
f 209 210 192
f 188 207 209
f 190 260 207
f 201 192 210
f 212 210 211
f 201 210 212
f 206 209 207
f 206 213 209
f 213 210 209
f 215 216 213
f 208 215 213
f 213 206 208
f 267 217 220
f 267 266 217
f 208 261 218
f 208 249 215
f 247 216 215
f 266 248 217
f 249 247 215
f 246 249 208
f 261 217 218
f 208 218 246
f 263 262 216
f 219 45 275
f 219 275 220
f 219 260 45
f 225 227 224
f 226 235 227
f 227 225 226
f 244 226 254
f 238 244 254
f 229 230 236
f 228 231 238
f 238 231 244
f 230 231 228
f 233 242 234
f 242 233 255
f 234 255 233
f 222 223 254
f 222 254 240
f 234 222 240
f 227 235 224
f 254 225 224
f 230 228 236
f 244 231 236
f 231 229 236
f 228 232 237
f 239 237 232
f 221 222 234
f 254 223 221
f 223 222 221
f 225 254 226
f 235 226 244
f 230 229 231
f 232 228 245
f 232 245 239
f 238 221 241
f 237 239 252
f 254 224 235
f 221 238 254
f 218 217 248
f 263 216 247
f 263 248 266
f 250 247 249
f 251 248 263
f 246 252 249
f 263 247 264
f 250 264 247
f 248 251 253
f 264 251 263
f 252 250 249
f 264 253 251
f 252 264 250
f 268 253 264
f 246 269 252
f 268 243 253
f 264 252 268
f 253 243 270
f 244 236 235
f 237 236 228
f 234 242 241
f 234 256 255
f 255 256 242
f 245 228 238
f 238 239 245
f 252 236 237
f 252 235 236
f 234 265 256
f 187 189 197
f 185 312 258
f 260 206 207
f 214 206 260
f 207 197 189
f 258 257 185
f 214 261 206
f 265 269 270
f 235 269 265
f 252 269 235
f 201 212 271
f 254 235 240
f 239 268 252
f 240 265 234
f 235 265 240
f 243 268 239
f 256 270 243
f 265 270 256
f 238 243 239
f 243 238 241
f 221 234 241
f 262 266 267
f 262 263 266
f 246 248 253
f 253 269 246
f 269 253 270
f 218 248 246
f 241 242 243
f 243 242 256
f 267 220 274
f 271 212 273
f 272 267 274
f 212 211 273
f 273 211 272
f 274 220 277
f 271 273 95
f 95 273 280
f 220 214 219
f 276 44 99
f 275 44 276
f 276 277 220
f 275 276 220
f 99 98 276
f 276 278 287
f 277 276 287
f 273 272 280
f 98 99 106
f 106 99 107
f 100 105 107
f 279 272 274
f 95 283 281
f 111 100 102
f 100 111 105
f 283 282 289
f 283 284 281
f 283 289 284
f 281 284 110
f 277 287 285
f 279 285 292
f 106 107 108
f 106 109 278
f 292 285 286
f 286 285 293
f 282 279 292
f 293 287 288
f 278 109 291
f 287 278 291
f 287 291 288
f 293 288 290
f 274 285 279
f 278 98 106
f 95 280 283
f 272 282 283
f 280 272 283
f 285 274 277
f 285 287 293
f 210 213 216
f 210 216 211
f 262 211 216
f 211 262 267
f 211 267 272
f 98 278 276
f 272 279 282
f 292 289 282
f 355 288 291
f 112 284 347
f 294 290 355
f 294 295 290
f 347 348 355
f 298 295 294
f 296 295 298
f 302 294 348
f 299 298 294
f 297 296 303
f 296 298 301
f 303 300 297
f 301 303 296
f 304 297 300
f 303 346 305
f 298 299 338
f 300 305 344
f 305 300 303
f 301 346 303
f 129 172 163
f 306 338 299
f 349 344 306
f 182 183 180
f 202 259 180
f 259 182 180
f 183 311 181
f 182 196 4
f 312 184 6
f 203 183 181
f 311 5 184
f 194 196 182
f 187 191 313
f 5 311 133
f 187 312 18
f 193 22 195
f 313 202 311
f 311 184 312
f 311 312 313
f 311 183 133
f 314 204 205
f 204 314 203
f 181 311 202
f 203 314 183
f 187 313 312
f 315 6 7
f 9 312 315
f 312 9 86
f 312 86 258
f 258 86 10
f 315 312 6
f 186 258 10
f 259 202 313
f 259 194 182
f 199 317 316
f 323 193 195
f 323 321 320
f 324 319 320
f 320 321 324
f 319 321 318
f 321 323 318
f 320 319 322
f 323 322 318
f 323 320 191
f 320 322 191
f 324 321 319
f 319 318 322
f 323 198 322
f 198 323 199
f 198 194 322
f 198 316 200
f 317 199 195
f 342 328 343
f 344 328 342
f 353 333 331
f 335 353 331
f 337 345 339
f 346 328 305
f 345 343 346
f 338 306 340
f 328 346 343
f 344 305 328
f 343 345 341
f 341 345 337
f 354 340 341
f 332 334 331
f 339 338 325
f 342 341 340
f 343 341 342
f 338 340 325
f 327 325 336
f 308 327 336
f 354 308 307
f 310 326 309
f 327 330 310
f 345 338 339
f 354 327 308
f 330 350 334
f 350 330 329
f 330 326 310
f 327 310 309
f 309 326 327
f 325 327 326
f 331 329 330
f 333 332 331
f 333 334 332
f 329 331 334
f 329 334 350
f 306 299 349
f 299 302 349
f 294 302 299
f 302 304 349
f 355 348 294
f 286 293 295
f 109 112 291
f 325 307 336
f 333 353 334
f 326 330 334
f 325 340 307
f 339 334 337
f 354 330 327
f 308 336 307
f 352 351 353
f 351 352 335
f 335 352 353
f 340 354 307
f 334 339 325
f 334 325 326
f 331 341 335
f 330 341 331
f 330 354 341
f 337 334 353
f 351 337 353
f 337 351 341
f 335 341 351
f 342 340 344
f 306 344 340
f 346 301 345
f 345 301 298
f 338 345 298
f 344 349 300
f 300 349 304
f 347 304 302
f 110 284 112
f 347 302 348
f 304 284 289
f 112 355 291
f 296 286 295
f 297 286 296
f 112 347 355
f 304 347 284
f 304 289 297
f 297 289 292
f 297 292 286
f 290 295 293
f 288 355 290
f 312 87 8
f 8 87 18
f 45 44 275
f 196 137 4
f 356 358 357
f 358 356 357
f 359 361 360
f 361 359 360
f 362 365 364
f 362 364 463
f 364 365 363
f 369 365 362
f 369 363 365
f 367 366 496
f 496 366 495
f 367 369 366
f 367 368 369
f 508 368 367
f 369 368 472
f 472 476 363
f 425 424 427
f 471 452 469
f 370 380 406
f 377 379 373
f 440 377 375
f 373 375 377
f 446 381 377
f 383 382 381
f 403 400 401
f 396 385 386
f 388 389 371
f 390 389 388
f 385 384 389
f 385 389 390
f 388 387 425
f 390 400 403
f 402 400 425
f 376 392 394
f 392 395 394
f 391 396 395
f 391 384 396
f 406 380 412
f 408 412 407
f 408 407 410
f 380 382 411
f 415 417 418
f 382 383 413
f 429 422 433
f 412 416 417
f 423 421 484
f 485 436 434
f 426 433 430
f 501 436 485
f 442 445 440
f 440 393 442
f 445 451 444
f 441 393 394
f 467 454 456
f 467 456 455
f 459 398 399
f 458 459 460
f 460 459 464
f 457 456 462
f 470 457 462
f 462 460 464
f 474 461 462
f 463 465 474
f 469 452 470
f 476 472 475
f 474 465 473
f 470 461 475
f 363 465 364
f 363 476 473
f 473 465 363
f 487 483 480
f 483 419 482
f 483 487 420
f 485 484 486
f 485 486 501
f 491 507 492
f 463 498 495
f 497 431 504
f 496 502 507
f 506 504 500
f 508 367 491
f 367 496 507
f 374 371 389
f 486 502 501
f 489 450 449
f 498 405 494
f 438 437 499
f 379 377 381
f 379 370 372
f 406 371 370
f 370 371 374
f 372 370 374
f 406 409 371
f 406 408 409
f 388 371 409
f 446 377 443
f 375 393 440
f 379 372 373
f 374 375 372
f 372 375 373
f 375 376 393
f 378 382 380
f 378 381 382
f 378 379 381
f 378 370 379
f 370 378 380
f 396 384 385
f 390 386 385
f 388 409 387
f 384 374 389
f 388 400 390
f 388 425 400
f 384 391 375
f 375 391 392
f 374 384 375
f 376 375 392
f 392 391 395
f 376 394 393
f 395 396 386
f 395 386 397
f 397 386 399
f 395 398 394
f 395 397 398
f 397 399 398
f 401 400 402
f 428 401 427
f 390 403 386
f 405 404 403
f 399 403 404
f 386 403 399
f 401 405 403
f 464 399 404
f 464 404 466
f 422 434 433
f 406 412 408
f 407 412 417
f 409 408 410
f 410 407 414
f 429 410 414
f 411 412 380
f 412 411 416
f 415 407 417
f 382 413 411
f 411 413 416
f 415 414 407
f 429 414 422
f 414 415 421
f 414 421 422
f 418 416 481
f 421 415 420
f 415 418 420
f 417 416 418
f 418 481 419
f 420 418 419
f 422 421 423
f 423 485 434
f 423 484 485
f 434 422 423
f 430 433 439
f 505 504 439
f 410 429 424
f 409 410 387
f 424 429 426
f 387 410 425
f 425 410 424
f 402 425 427
f 427 424 426
f 432 428 430
f 426 428 427
f 430 428 426
f 427 401 402
f 429 433 426
f 504 430 439
f 401 428 494
f 428 432 494
f 494 432 431
f 432 430 504
f 431 432 504
f 401 494 405
f 433 435 439
f 435 436 437
f 433 434 436
f 433 436 435
f 437 436 499
f 436 501 499
f 439 435 438
f 435 437 438
f 438 500 505
f 439 438 505
f 445 467 451
f 451 467 468
f 446 443 444
f 443 445 444
f 377 440 443
f 443 440 445
f 393 441 442
f 445 442 467
f 447 446 444
f 381 446 383
f 446 447 383
f 447 444 448
f 447 448 383
f 448 444 449
f 477 383 448
f 448 450 477
f 450 448 449
f 444 451 449
f 451 468 452
f 489 451 453
f 489 449 451
f 453 451 452
f 453 452 471
f 441 454 442
f 441 394 454
f 394 458 454
f 442 454 467
f 456 454 458
f 455 456 457
f 458 394 459
f 398 459 394
f 459 399 464
f 456 458 462
f 462 458 460
f 466 474 464
f 466 404 405
f 466 405 498
f 474 462 464
f 463 466 498
f 463 364 465
f 466 463 474
f 468 467 455
f 470 455 457
f 468 455 470
f 452 468 470
f 469 470 475
f 471 469 472
f 508 471 472
f 472 469 475
f 474 473 461
f 461 470 462
f 475 461 473
f 476 475 473
f 478 479 493
f 413 383 477
f 416 413 481
f 413 478 481
f 477 450 479
f 477 479 413
f 413 479 478
f 480 482 493
f 480 492 488
f 488 492 507
f 487 480 488
f 488 507 502
f 481 478 482
f 420 419 483
f 421 420 487
f 419 481 482
f 480 483 482
f 478 493 482
f 484 421 487
f 488 484 487
f 486 484 488
f 486 488 502
f 479 450 489
f 489 493 479
f 490 489 453
f 490 453 491
f 490 493 489
f 491 453 471
f 491 471 508
f 490 492 493
f 492 480 493
f 491 492 490
f 503 497 506
f 495 431 497
f 431 495 494
f 362 366 369
f 362 463 495
f 362 495 366
f 497 502 496
f 503 502 497
f 495 497 496
f 504 506 497
f 498 494 495
f 499 502 438
f 499 501 502
f 500 438 506
f 506 438 502
f 502 503 506
f 504 505 500
f 507 491 367
f 472 363 369
f 508 472 368
