# decimated from body_3d.obj (Moraes reconstruction)
v -3.996945 25.669000 -78.024198
v -1.351136 26.087332 -73.074827
v 0.514274 27.439690 -72.736825
v -0.664425 21.709629 -75.043145
v -1.665759 25.608259 -70.240475
v -0.762094 16.516680 -65.485720
v -1.649646 15.424964 -71.633880
v -5.265294 11.003510 -63.533580
v -5.359597 16.443452 -58.521885
v 0.230872 25.947781 -66.297209
v -3.221126 18.892164 -65.065472
v -6.675778 12.890772 -86.751873
v -2.262418 24.922404 -77.164997
v -1.536498 22.832002 -78.816147
v -2.107646 23.374953 -48.705977
v -23.050480 14.926889 -55.300945
v -23.577982 8.259442 -53.806842
v -7.445721 0.255556 -49.465627
v -18.008787 4.953760 -50.079287
v -20.628274 16.074115 -46.555405
v -15.966395 9.410901 -44.649815
v -18.856896 13.220240 -27.325636
v -9.860601 22.769403 -43.252733
v 7.122638 23.774630 -1.724587
v 1.034579 28.906394 -3.850462
v 6.560570 23.293999 1.746144
v 4.752398 27.026866 -1.597698
v -1.817254 28.545872 -0.743420
v 2.564948 27.714563 -0.380495
v 4.514118 23.625250 2.835885
v 1.429537 24.961553 3.193231
v 4.609075 23.099294 -7.262211
v 0.624169 26.610589 0.943377
v -3.131674 26.372244 0.789766
v -2.327448 23.920618 -10.596408
v 0.665245 25.450674 -8.220512
v 5.619128 27.484672 -4.581246
v 3.739021 27.451996 -2.957493
v -26.667525 13.603771 -26.627195
v -24.489145 15.895055 -29.805052
v -10.023150 28.131048 -7.920543
v -22.716177 9.413525 -23.103053
v -9.861406 24.973749 -7.201421
v -1.165071 25.790782 -72.316602
v -5.693904 27.589873 -10.468908
v -12.448178 10.938985 -26.606208
v -15.303184 18.794474 -47.356607
v -11.675762 18.563655 -23.854336
v 2.088410 23.334906 -17.958334
v -2.052150 23.236424 -28.358729
v -10.505386 6.990573 -20.503672
v -4.936523 1.047134 -2.614568
v -4.614594 6.034612 7.301749
v -9.556526 21.750429 -4.162342
v -15.113394 19.488935 -5.516419
v 1.016656 17.932604 4.308997
v -16.763380 13.836707 10.951112
v 0.124456 14.803248 3.905262
v -13.886642 5.453736 4.616071
v -7.838070 24.966040 19.614979
v -9.782148 15.589795 39.310858
v 0.661408 12.662821 42.003990
v -0.722365 20.773830 39.938050
v -6.476594 11.374190 40.695590
v -9.883254 8.692563 55.730455
v -2.538137 5.546665 53.906379
v -6.301464 20.545243 47.372776
v 0.863500 12.448459 52.775718
v 7.637615 22.393739 101.531411
v 6.066261 22.308304 102.327938
v -3.543137 21.772344 -76.831877
v -4.995591 21.910916 -68.513452
v -1.874567 24.596182 -85.354943
v -6.961857 15.901093 -75.548234
v -7.898600 13.874234 -75.834081
v -5.274968 23.803825 -78.019665
v -6.778226 15.157454 -73.452895
v 2.952914 18.669568 99.297122
v 2.938876 20.257017 101.748879
v 5.022617 21.634617 102.026193
v 6.071517 18.249462 100.050927
v 8.570341 20.311671 98.195746
v -1.514498 13.681990 98.649835
v -2.622085 12.724803 82.969348
v 6.066537 12.428265 95.003637
v -4.158051 6.281668 88.105551
v -0.581804 -1.303463 89.666577
v -0.235362 5.192171 82.986904
v 5.185426 19.163836 97.733629
v 0.764129 18.895628 101.601971
v 1.231261 16.129337 101.303914
v 1.795179 24.892705 -77.580988
v 4.364073 24.569872 -77.533478
v 0.301742 26.139153 -78.220708
v 0.885895 24.889021 -67.887461
v 5.473216 10.117513 -63.379205
v 2.528399 19.503168 -64.953880
v 4.184670 17.647894 -57.815322
v 5.761081 24.153612 -80.083034
v 1.085237 8.064056 -69.992371
v 4.739669 7.002847 -79.951852
v -2.914036 7.386897 -61.793597
v 4.800684 22.841897 -78.288355
v 21.200812 16.599629 -55.170451
v 15.844507 8.714553 -60.783171
v 7.432551 -0.118211 -45.996792
v 23.716814 9.002750 -52.170134
v 15.245972 19.443444 -50.232451
v 16.402791 15.173923 -46.048512
v 21.244421 16.540971 -39.039753
v 12.237007 16.690984 -29.024922
v -3.486906 23.740788 -1.221017
v -8.800735 22.762580 2.923564
v -7.797130 22.682051 5.159304
v -5.782805 22.156786 5.790927
v -1.954862 22.215532 4.533201
v -5.846622 21.764532 -3.046430
v -1.207818 25.174048 0.764503
v 1.466079 24.236581 1.384889
v -1.440888 23.035859 0.570321
v -4.596926 25.619788 -1.864634
v -3.156186 24.193005 -4.814734
v 3.347843 22.761877 1.302900
v 25.513831 15.518231 -30.219792
v 24.222082 9.952248 -23.042246
v 18.365299 12.924129 -27.628537
v -4.789145 22.550239 -5.874170
v 3.716798 15.708004 -71.166308
v 3.155590 23.091695 -73.136478
v 17.603111 5.247361 -49.334919
v 7.289300 23.390997 -8.088073
v 14.516764 7.519807 -45.063171
v 8.136205 27.592622 -8.913353
v 3.505172 26.875891 -10.464397
v -0.326743 2.381398 -43.099316
v 12.021122 8.526402 -22.730120
v 9.699822 22.783327 -43.294193
v 10.344019 22.577637 -8.377419
v -1.483191 5.127904 -18.634858
v 8.960701 2.331232 -0.310137
v 0.176967 2.929491 -3.526626
v 0.150542 10.358138 3.814352
v 16.226950 17.789064 -2.272493
v 16.728910 9.000014 9.437599
v 11.736563 23.610080 12.391550
v 9.118235 20.152512 48.293608
v 12.127910 15.467360 38.043625
v 8.370447 11.143427 40.203592
v 4.868877 5.509078 55.401082
v 13.153559 9.537383 54.660827
v 2.083793 13.203107 45.520706
v 4.929468 5.024876 83.327074
v 4.281079 12.740505 83.089143
v -2.636093 13.656540 105.601979
v -0.176084 15.389812 105.999533
v 0.629477 26.438238 -70.501983
v 5.282690 22.650342 -70.263713
v 1.463947 22.138130 -77.520431
v 6.389074 12.530503 -87.486119
v -3.469346 5.400110 -80.766600
v 6.599398 16.030818 -72.471334
v 7.163087 15.584931 -76.981586
v 8.005141 13.934818 -75.564061
v 6.718244 15.154596 -74.707781
v 0.556084 14.254207 102.056809
v 9.514232 0.467982 86.598756
v 2.254058 15.705912 106.247034
v 1.959271 13.396412 104.619116
v 6.922938 14.321595 103.629027
v 4.149645 13.401622 100.699738
v 5.807261 11.787983 102.833479
v 4.860954 -0.536907 87.780243
v 8.866107 9.210012 87.088301
v 3.708829 21.868878 38.649936
v 1.314172 11.172640 60.408780
v 4.791075 14.844267 104.520259
v -0.557318 8.902692 99.202777
v -6.436649 14.045725 -64.337569
v -4.380421 16.295623 -68.796273
v -7.031932 18.152423 -67.747310
v 8.438042 10.836743 -77.171418
v 1.964180 4.370392 -81.901084
v 5.585999 7.585966 -75.332519
v 4.231492 3.995914 -74.191339
v 3.488400 3.958818 -68.168066
v 5.155316 7.029939 -84.367181
v 8.298931 16.358688 -83.283379
v 3.365456 13.771559 -88.310232
v -1.207618 13.133781 -89.005645
v 6.379994 4.693463 -68.536882
v 5.966197 6.226704 -59.971042
v 9.533058 14.306072 -70.537739
v 7.455396 10.733176 -68.685476
v 8.176085 9.716064 -64.572500
v 4.042067 5.972706 -68.506630
v 2.188184 5.017954 -66.482717
v 3.364302 3.553211 -57.119500
v 5.009865 12.804696 -65.805982
v 4.169019 12.316159 -62.927764
v 7.865569 19.953201 -79.952678
v 9.162646 16.289213 -78.522007
v 4.358910 22.783504 -87.051052
v 5.599851 21.108465 -80.322743
v 3.883851 24.408133 -81.095047
v 5.115740 25.048775 -83.612200
v 6.676641 18.794223 -69.361373
v 9.614682 15.315379 -64.732965
v 6.260054 15.982269 -64.683694
v 4.360203 16.375080 -68.600376
v -0.074595 20.033029 -66.161156
v 6.201145 20.458430 -72.391023
v 3.555220 25.186202 -71.314253
v 0.148129 25.510508 -70.158262
v -1.045821 26.894232 -66.365710
v 3.502082 24.540673 -65.225652
v -0.862303 3.257331 -76.686643
v -3.682368 3.879493 -75.895608
v -1.814966 4.814365 -82.752998
v -5.551569 6.542156 -82.790109
v -0.170731 8.476464 -87.189382
v -5.743762 10.921828 -86.847004
v -8.089221 9.496858 -73.885352
v -9.428703 17.399488 -81.908912
v -5.404564 5.053283 -71.294097
v -6.301164 4.292843 -66.416116
v -2.953173 4.158361 -64.784288
v -0.275794 5.247160 -57.675775
v -3.609870 3.699015 -57.452591
v -6.002218 6.417351 -59.286244
v -4.293424 13.855651 -66.003750
v -0.744911 6.763003 -57.094544
v -7.374619 9.797218 -62.361675
v -5.651654 11.788935 -62.101517
v -8.223072 11.446756 -72.054429
v -6.264775 7.779274 -65.691784
v -10.270260 15.906049 -66.275510
v -8.034769 10.831010 -64.392010
v -2.000791 19.255431 -88.314744
v -3.905441 22.540426 -86.592843
v -2.662950 25.748588 -84.205246
v -5.139707 23.285929 -81.388728
v 0.454752 22.321940 -77.555078
v 0.112149 25.764539 -74.166544
v -1.914965 26.060332 -71.657123
v -3.965445 24.112521 -79.400497
v -5.015580 22.246361 -77.143869
v -8.298867 20.482561 -80.966278
v -9.028612 18.120661 -71.247224
v 0.371836 17.722361 -64.488908
v -6.075715 18.050561 -69.084544
v -4.602205 24.404330 -64.682143
v -0.030981 17.844510 -62.214508
v -4.843783 22.928010 -71.605152
v -0.279456 24.276288 -63.527372
f 5 95 6
f 98 97 11
f 98 11 9
f 94 1 13
f 77 8 11
f 75 100 8
f 76 1 73
f 10 72 11
f 8 9 11
f 159 12 73
f 8 100 102
f 1 76 14
f 1 14 13
f 13 71 76
f 76 71 14
f 47 20 21
f 9 16 15
f 16 47 15
f 16 20 47
f 47 21 46
f 9 8 16
f 16 40 20
f 9 15 98
f 16 8 17
f 17 8 102
f 102 18 17
f 40 16 17
f 39 17 19
f 20 22 21
f 40 17 39
f 21 22 42
f 23 47 50
f 15 23 50
f 23 15 47
f 24 37 38
f 37 25 38
f 38 25 27
f 29 27 26
f 28 33 29
f 29 33 30
f 33 28 31
f 34 31 28
f 33 31 34
f 26 27 29
f 25 29 27
f 38 37 24
f 33 29 30
f 29 33 27
f 33 38 27
f 39 19 42
f 41 39 42
f 41 40 39
f 41 42 43
f 41 45 40
f 40 45 22
f 43 42 22
f 45 43 22
f 29 25 28
f 36 32 35
f 32 36 35
f 33 43 35
f 6 7 5
f 4 44 5
f 40 22 20
f 5 7 4
f 25 45 41
f 28 25 41
f 34 41 43
f 102 135 18
f 34 28 41
f 38 36 37
f 36 38 33
f 25 37 45
f 45 37 36
f 33 34 43
f 35 36 33
f 19 21 42
f 36 35 45
f 43 45 35
f 19 51 46
f 19 46 21
f 18 51 19
f 18 139 51
f 135 139 18
f 46 48 47
f 46 55 48
f 48 50 47
f 48 55 50
f 139 141 52
f 141 53 52
f 51 59 46
f 55 60 54
f 139 52 51
f 17 18 19
f 51 52 59
f 53 59 52
f 58 56 60
f 142 53 141
f 67 57 61
f 59 64 61
f 68 63 67
f 64 66 65
f 68 66 62
f 62 66 64
f 65 61 64
f 61 65 67
f 65 84 67
f 88 68 84
f 66 88 86
f 86 65 66
f 84 65 86
f 13 2 94
f 13 14 71
f 3 94 2
f 5 72 10
f 72 74 77
f 72 77 11
f 75 160 100
f 8 77 75
f 5 13 76
f 13 5 2
f 74 72 76
f 5 76 72
f 5 156 2
f 74 76 12
f 12 76 73
f 77 74 75
f 12 160 75
f 12 75 74
f 90 91 79
f 86 88 87
f 89 88 84
f 87 83 86
f 83 84 86
f 84 83 78
f 84 78 89
f 87 91 83
f 91 87 85
f 89 82 88
f 85 82 81
f 69 81 82
f 88 82 85
f 81 78 80
f 81 70 78
f 70 89 78
f 70 81 89
f 69 89 81
f 79 81 80
f 84 68 67
f 67 63 60
f 54 60 56
f 89 69 82
f 79 80 78
f 79 78 90
f 83 90 78
f 81 91 85
f 81 79 91
f 83 91 90
f 87 88 85
f 88 66 68
f 63 68 62
f 53 142 62
f 142 58 62
f 60 57 67
f 57 59 61
f 62 58 63
f 58 60 63
f 62 64 53
f 64 59 53
f 60 55 57
f 95 5 156
f 128 6 95
f 4 7 128
f 6 128 7
f 98 161 97
f 161 98 96
f 161 96 100
f 157 161 162
f 157 162 99
f 159 160 12
f 163 161 100
f 163 100 101
f 157 97 161
f 100 96 102
f 97 10 11
f 10 97 157
f 73 99 159
f 103 158 93
f 93 92 103
f 158 103 92
f 104 109 110
f 108 111 109
f 98 15 108
f 96 98 105
f 102 96 105
f 102 105 106
f 104 105 98
f 104 107 105
f 107 104 110
f 132 109 111
f 110 124 107
f 125 130 107
f 132 126 109
f 124 125 107
f 137 108 15
f 120 114 112
f 115 120 119
f 122 127 117
f 113 112 121
f 122 113 121
f 115 119 118
f 120 115 118
f 123 119 116
f 112 113 122
f 118 114 120
f 116 119 123
f 120 112 122
f 119 123 133
f 112 114 118
f 110 109 126
f 125 126 132
f 131 126 125
f 133 125 124
f 133 131 125
f 126 131 134
f 123 119 120
f 133 118 119
f 122 134 127
f 95 156 129
f 108 104 98
f 129 128 95
f 108 109 104
f 118 133 134
f 102 106 135
f 112 118 121
f 123 131 133
f 121 134 122
f 118 134 121
f 127 134 131
f 120 131 123
f 131 120 122
f 130 125 132
f 126 133 124
f 133 126 134
f 110 126 124
f 122 117 131
f 131 117 127
f 132 111 136
f 135 106 139
f 111 108 137
f 137 50 49
f 137 49 111
f 111 49 138
f 106 136 139
f 49 50 54
f 54 50 55
f 57 46 59
f 46 57 55
f 141 140 142
f 111 138 143
f 136 143 144
f 54 56 138
f 140 136 144
f 143 138 145
f 138 56 145
f 138 49 54
f 136 140 141
f 139 136 141
f 143 136 111
f 105 107 130
f 105 130 106
f 106 130 132
f 106 132 136
f 174 145 56
f 58 142 151
f 146 145 174
f 151 146 174
f 148 147 150
f 147 146 150
f 150 149 148
f 151 148 149
f 150 173 152
f 152 149 150
f 175 152 153
f 93 99 92
f 99 94 92
f 94 73 1
f 158 92 93
f 99 73 94
f 3 92 94
f 157 156 10
f 157 93 92
f 92 3 156
f 92 156 157
f 156 3 2
f 156 5 44
f 156 44 129
f 129 44 4
f 128 129 4
f 99 93 157
f 101 160 159
f 161 163 164
f 161 164 162
f 164 163 162
f 163 159 162
f 159 163 101
f 159 99 162
f 160 101 100
f 152 166 172
f 169 173 170
f 173 166 152
f 166 173 171
f 171 173 169
f 176 170 171
f 170 153 165
f 172 171 177
f 166 171 172
f 153 177 165
f 168 165 155
f 173 153 170
f 177 155 154
f 168 167 170
f 171 167 168
f 167 171 170
f 153 146 175
f 146 151 175
f 144 143 146
f 165 154 155
f 165 168 170
f 165 177 154
f 177 168 155
f 169 176 171
f 168 177 171
f 169 170 176
f 172 177 152
f 153 152 177
f 173 150 146
f 153 173 146
f 152 175 149
f 149 175 151
f 151 142 140
f 58 174 56
f 147 144 146
f 148 144 147
f 58 151 174
f 151 140 148
f 148 140 144
f 145 146 143
f 156 5 10
f 15 50 137
f 180 178 230
f 250 180 179
f 248 180 250
f 236 237 178
f 207 206 208
f 216 182 184
f 189 188 220
f 199 194 198
f 191 190 193
f 191 193 194
f 193 192 207
f 208 194 207
f 195 191 196
f 195 190 191
f 201 187 200
f 187 188 202
f 188 189 238
f 187 202 205
f 206 211 215
f 244 212 243
f 217 222 219
f 226 227 228
f 228 227 231
f 225 224 229
f 235 225 229
f 229 228 231
f 230 232 233
f 234 222 235
f 235 229 237
f 178 232 230
f 178 237 232
f 241 245 204
f 243 242 244
f 248 253 247
f 230 252 179
f 251 210 254
f 251 254 214
f 183 181 193
f 223 221 219
f 186 182 220
f 186 181 183
f 187 201 181
f 193 181 201
f 220 182 218
f 186 183 182
f 183 184 182
f 184 185 216
f 186 188 187
f 186 220 188
f 181 186 187
f 193 201 192
f 190 183 193
f 193 207 194
f 190 195 184
f 184 195 185
f 183 190 184
f 185 195 196
f 185 196 216
f 196 191 197
f 197 191 231
f 196 197 227
f 197 231 227
f 198 194 208
f 209 198 208
f 194 199 191
f 191 199 231
f 198 252 199
f 231 199 233
f 203 212 211
f 200 187 205
f 211 200 203
f 204 200 205
f 188 238 202
f 204 203 200
f 205 202 240
f 204 205 240
f 203 204 242
f 242 243 212
f 212 203 242
f 200 211 206
f 201 200 192
f 192 200 207
f 207 200 206
f 210 209 215
f 206 209 208
f 215 209 206
f 198 209 249
f 209 210 249
f 210 215 254
f 198 249 252
f 211 212 215
f 212 244 213
f 215 212 214
f 212 213 214
f 215 214 254
f 217 224 222
f 220 218 219
f 218 217 219
f 182 216 218
f 218 216 217
f 220 219 221
f 220 221 189
f 238 189 221
f 223 219 222
f 223 222 234
f 216 226 217
f 216 196 226
f 217 226 224
f 226 196 227
f 224 226 229
f 229 226 228
f 233 199 252
f 233 229 231
f 230 233 252
f 224 225 235
f 222 224 235
f 234 235 237
f 248 234 236
f 236 234 237
f 233 232 229
f 237 229 232
f 202 238 240
f 238 239 240
f 238 221 239
f 241 240 247
f 241 247 246
f 246 247 253
f 245 241 246
f 204 240 241
f 239 247 240
f 242 204 245
f 246 242 245
f 244 242 246
f 244 246 253
f 239 221 223
f 223 247 239
f 247 223 248
f 248 223 234
f 179 210 251
f 210 179 249
f 230 179 180
f 251 253 250
f 179 251 250
f 252 249 179
f 213 253 214
f 213 244 253
f 251 214 253
f 253 248 250
f 236 178 180
f 248 236 180
